<svg id="Capa_1" enable-background="new 0 0 512 512" height="512" viewBox="0 0 512 512" width="512" xmlns="http://www.w3.org/2000/svg"><g><g><path d="m74.853 203c-3.718 0-7.335-1.389-10.116-3.943l-35.607-32.704c-18.513-17.003-29.13-41.186-29.13-66.348 0-49.629 40.297-90.005 89.829-90.005 17.601 0 33.81 8.844 43.358 23.659l20.113 31.204c3.039 4.715 3.197 10.736.408 15.604l-65.871 115c-2.263 3.951-6.196 6.658-10.689 7.356-.764.118-1.532.177-2.295.177z" fill="#966641"/><path d="m437.147 203c-.764 0-1.531-.059-2.296-.177-4.493-.699-8.426-3.405-10.689-7.356l-65.871-115c-2.788-4.868-2.631-10.889.408-15.604l20.113-31.204c9.549-14.815 25.757-23.659 43.359-23.659 49.532 0 89.829 40.376 89.829 90.005 0 25.162-10.617 49.345-29.13 66.348l-35.608 32.705c-2.781 2.553-6.397 3.942-10.115 3.942z" fill="#7e5436"/></g><g><path d="m337.159 502h-163.675c-18.346 0-36.525-4.7-52.572-13.593l-57.573-31.903c-22.126-12.261-39.359-31.998-48.524-55.576l-7.447-19.158c-4.889-12.58-7.368-25.799-7.368-39.295v-84.24c0-24.123 8.189-47.868 23.06-66.862l22.21-28.368c9.936-12.691 16.799-27.765 19.848-43.59 11.1-57.606 61.735-99.415 120.398-99.415h140.968c58.664 0 109.298 41.809 120.398 99.413 3.049 15.826 9.912 30.899 19.849 43.592l22.208 28.367c14.872 18.995 23.061 42.74 23.061 66.862v84.24c0 13.495-2.479 26.716-7.368 39.295l-7.321 18.837c-9.259 23.819-26.711 43.677-49.144 55.917l-59.055 32.224c-15.888 8.67-33.854 13.253-51.953 13.253z" fill="#ae774e"/></g><g><path d="m488.939 191.372-22.208-28.367c-9.937-12.693-16.8-27.766-19.849-43.592-11.1-57.604-61.734-99.413-120.398-99.413h-70.484v482h81.159c18.099 0 36.064-4.583 51.953-13.253l59.055-32.224c22.433-12.24 39.885-32.098 49.144-55.917l7.321-18.837c4.889-12.579 7.368-25.8 7.368-39.295v-84.24c0-24.122-8.189-47.867-23.061-66.862z" fill="#966641"/></g><path d="m258.5 206c-26.879 0-52.088 13.038-67.622 34.973l-51.236 72.349c-14.82 20.927-19.116 47.536-11.635 72.064l13.093 42.926c10.634 34.867 42.805 58.688 79.257 58.688h76.286c36.452 0 68.623-23.821 79.257-58.688l13.093-42.926c7.481-24.528 3.185-51.137-11.635-72.064l-51.236-72.349c-15.534-21.935-40.743-34.973-67.622-34.973z" fill="#dabba6"/><g><path d="m377.359 313.322-51.236-72.349c-15.535-21.935-40.744-34.973-67.623-34.973-.835 0-1.668.013-2.5.038v280.962h40.643c36.452 0 68.623-23.821 79.257-58.688l13.093-42.926c7.482-24.527 3.186-51.137-11.634-72.064z" fill="#d1ab8f"/></g><g><path d="m120 249c-8.284 0-15-6.716-15-15v-30c0-8.284 6.716-15 15-15s15 6.716 15 15v30c0 8.284-6.716 15-15 15z" fill="#444"/></g><g><path d="m392 249c-8.284 0-15-6.716-15-15v-30c0-8.284 6.716-15 15-15s15 6.716 15 15v30c0 8.284-6.716 15-15 15z" fill="#292929"/></g><g><path d="m271 397.738h2.578c12.578 0 24.052-7.178 29.554-18.489l6.16-12.664c5.917-12.163 3.777-26.71-5.392-36.654-6.222-6.748-14.983-10.587-24.162-10.587h-47.477c-9.179 0-17.94 3.839-24.162 10.587-9.169 9.944-11.309 24.49-5.392 36.654l6.16 12.664c5.502 11.31 16.976 18.489 29.554 18.489h2.579v89.262h30z" fill="#53433f"/></g><g><path d="m271 397.738h2.578c12.578 0 24.052-7.178 29.554-18.489l6.16-12.664c5.917-12.163 3.777-26.71-5.392-36.654-6.222-6.748-14.983-10.587-24.162-10.587h-23.738v167.656h15z" fill="#3e322e"/></g></g></svg>