<svg id="Capa_1" enable-background="new 0 0 512 512" height="512" viewBox="0 0 512 512" width="512" xmlns="http://www.w3.org/2000/svg"><g><path d="m376.623 320.822-51.136-72.349c-15.504-21.935-40.664-34.973-67.491-34.973s-51.987 13.038-67.491 34.973l-51.137 72.349c-14.791 20.927-19.079 47.536-11.612 72.064l13.068 42.926c10.614 34.866 42.722 58.688 79.103 58.688h20.603v-74.262h-2.574c-18.154 0-35.017-10.57-42.959-26.928l-6.148-12.664c-8.662-17.843-5.585-38.797 7.838-53.384 9.017-9.798 21.818-15.418 35.121-15.418h47.384c13.303 0 26.104 5.62 35.121 15.419 13.423 14.586 16.5 35.54 7.838 53.383l-6.148 12.664c-7.942 16.358-24.804 26.928-42.959 26.928h-2.574v74.262h25.593c36.381 0 68.489-23.821 79.103-58.688l13.068-42.926c7.468-24.527 3.18-51.137-11.611-72.064z"/><path d="m289.079 380.187 6.148-12.664c3.233-6.659 2.085-14.48-2.925-19.924-3.366-3.658-8.144-5.755-13.109-5.755h-47.384c-4.965 0-9.743 2.098-13.109 5.755-5.01 5.444-6.158 13.265-2.925 19.925l6.148 12.663c2.964 6.105 9.258 10.051 16.034 10.051h35.089c6.775 0 13.069-3.946 16.033-10.051z"/><g><path d="m50.291 124.075c6.024-31.326 22.863-59.764 47.416-80.076 7.351-6.081 15.288-11.338 23.651-15.728-8.894-6.891-19.901-10.771-31.528-10.771-49.533 0-89.83 40.376-89.83 90.005 0 23.684 9.409 46.498 25.952 63.275l7.441-9.523c8.458-10.825 14.301-23.682 16.898-37.182z"/><path d="m460.711 124.075c2.596 13.5 8.439 26.357 16.898 37.182l7.877 10.082c16.89-16.828 26.514-39.885 26.514-63.834 0-49.629-40.298-90.005-89.83-90.005-11.804 0-22.971 3.994-31.934 11.083 8.146 4.327 15.882 9.478 23.059 15.416 24.553 20.312 41.392 48.751 47.416 80.076z"/></g><path d="m476.199 208.119-22.166-28.368c-11.427-14.624-19.215-31.762-22.723-50-9.74-50.65-53.981-87.251-105.462-87.251h-140.694c-51.481 0-95.722 36.601-105.463 87.251-3.507 18.237-11.296 35.376-22.723 50l-22.166 28.368c-12.85 16.445-19.832 36.729-19.832 57.615v84.24c0 11.583 2.149 23.065 6.337 33.861l7.432 19.158c7.898 20.359 22.663 37.303 41.732 47.891l57.461 31.904c2.548 1.415 5.155 2.703 7.81 3.868-10.737-12.062-18.754-26.31-23.558-42.09l-13.068-42.926c-4.99-16.392-6.187-33.998-3.46-50.916 2.726-16.918 9.392-33.253 19.277-47.238l51.137-72.349c21.082-29.828 55.447-47.635 91.925-47.635 36.479 0 70.843 17.807 91.925 47.635l51.137 72.349c9.885 13.985 16.551 30.32 19.277 47.238s1.53 34.525-3.46 50.916l-13.068 42.926c-4.077 13.392-10.472 25.679-18.874 36.466l55.191-30.175c19.32-10.563 34.29-27.63 42.263-48.183l7.308-18.838c4.188-10.796 6.337-22.278 6.337-33.861v-84.24c0-20.887-6.982-41.171-19.832-57.616zm-351.443 33.381c0 8.284-6.703 15-14.971 15s-14.971-6.716-14.971-15v-30c0-8.284 6.703-15 14.971-15s14.971 6.716 14.971 15zm291.431 0c0 8.284-6.703 15-14.971 15s-14.971-6.716-14.971-15v-30c0-8.284 6.703-15 14.971-15s14.971 6.716 14.971 15z"/></g></svg>