<svg id="Capa_1" enable-background="new 0 0 512.002 512.002" height="512" viewBox="0 0 512.002 512.002" width="512" xmlns="http://www.w3.org/2000/svg"><g><path d="m192.377 69.596c-6.774 11.266-10.633 24.227-10.956 37.472h149.17c-.139-13.468-3.853-26.389-10.668-37.666 15.923-10.631 28.636-25.543 36.59-43.254 3.395-7.557.02-16.435-7.538-19.829-7.558-3.396-16.436-.02-19.829 7.538-6.3 14.027-16.818 25.574-30.021 33.164-25.435-18.098-60.049-18.571-86.06.111-13.293-7.588-23.88-19.181-30.211-33.275-3.394-7.557-12.272-10.93-19.828-7.537-7.557 3.395-10.932 12.272-7.538 19.829 8.004 17.82 20.827 32.804 36.889 43.447z"/><path d="m256.001 172.678c-5.993 11.222-.589 1.098-29.26 54.82h58.52c-28.759-53.877-23.242-43.539-29.26-54.82z"/><path d="m188.301 297.498h135.4c-5.585-7.947-7.044-11.197-22.42-40h-90.56c-15.249 28.575-16.799 32.002-22.42 40z"/><path d="m194.201 397.498c18.877 28.867 38.058 49.497 46.8 58.312v36.193c0 8.28 6.72 15 15 15s15-6.72 15-15v-36.193c8.742-8.815 27.923-29.445 46.8-58.312z"/><path d="m176.581 367.498h158.84c6.659-12.809 12.573-26.124 17.38-40h-193.6c4.807 13.877 10.722 27.193 17.38 40z"/><path d="m420.981 137.068s-143.419 0-149.98 0c.533 1 69.864 130.923 71.572 134.027 16.791 30.515 45.84 46.823 78.009 46.823 46.056 0 91.709-34.146 91.419-91.039-.255-49.796-41.223-89.811-91.02-89.811z"/><path d="m91.021 137.068h149.98c-.533 1-69.864 130.923-71.572 134.027-16.791 30.515-45.84 46.823-78.009 46.823-46.056 0-91.709-34.146-91.419-91.039.254-49.796 41.223-89.811 91.02-89.811z"/></g></svg>