<svg id="Capa_1" enable-background="new 0 0 512 512" height="512" viewBox="0 0 512 512" width="512" xmlns="http://www.w3.org/2000/svg"><g><path d="m113.583 279.75c40.324-59.366 29.856-43.954 70.169-103.309-2.532.122-108.101 5.139-111.279 5.29-8.256.395-14.665 7.434-14.27 15.7 1.67 34.99 12.72 68.29 31.78 96.829z"/><path d="m61.943 369.799-54.8 33.71c-7.467 4.589-9.44 14.606-4.2 21.69l37.13 50.24c4.658 6.279 13.313 7.922 19.92 3.86l73.04-44.91c-29.908-15.876-53.777-38.423-71.09-64.59z"/><path d="m309.591 159.241c23.451-14.407 30.186-20.31 45.2-20.31 15.06 0 28.76 7.65 36.64 20.47 4.84 7.87 9.08 16 12.72 24.35 25.377-24.704 50.054-53.637 68.5-84.219v-.067h24.349c8.284 0 15-6.716 15-15s-6.716-15-15-15h-28.326c-4.243-13.766-11.797-26.378-22.273-36.842-16.92-16.94-39.43-26.26-63.37-26.26-29.579 0-57.4 14.593-74.17 39.29l-132.999 195.807c17.524-10.772 112.937-69.436 133.729-82.219zm77.86-88.78c8.28 0 15 6.72 15 15 0 8.29-6.72 15-15 15-8.29 0-15-6.71-15-15 0-8.28 6.71-15 15-15z"/><path d="m496.94 166.391c-3.94-9.61-8.63-18.93-14.06-27.9-19.746 27.767-43.47 53.674-68.1 76.57 4.66 18.91 6.46 38.5 5.27 58.29-4.157 69.435-45.135 132.562-108.979 163.909l-.01.01c-1 .429-9.453 4.838-21.92 9.17l10.751 29.2h-16.05c-8.28 0-15 6.72-15 15 0 8.29 6.72 15 15 15h137.989c8.28 0 15-6.71 15-15 0-8.28-6.72-15-15-15h-26.87l-15.045-41.744c26.37-9.995 51.47-25.514 72.423-46.486 38.481-38.541 59.661-89.64 59.661-143.91v-.31c0-25.62-4.802-51.857-15.06-76.799zm-133.868 309.248c-10.802 0-20.423 0-31.29 0l-10.365-28.736c9.84-.704 19.79-2.174 29.709-4.391z"/><path d="m366.855 346.792c30.59-51.12 32.554-117.131-.979-171.676-3.76-6.116-11.765-8.022-17.881-4.262-139.025 85.464-169.608 104.269-259.828 159.737-6.117 3.76-8.022 11.765-4.263 17.881 15.491 25.173 37.237 45.754 63.746 59.718 36.381 19.14 78.202 24.105 117.806 14.069 40.707-10.264 78.107-36.566 101.399-75.467z"/></g></svg>