<svg id="Capa_1" enable-background="new 0 0 512 512" height="512" viewBox="0 0 512 512" width="512" xmlns="http://www.w3.org/2000/svg"><g><g><path d="m96.18 20.122c-.22.6-14.68 42.598-10.68 75.956-32.195 21.207-50.528 56.58-46.37 106.294-13.72-12.459-25.68-28.859-31.98-49.198-11.13-35.918-9.14-69.806 5.77-98.015 16.12-30.477 44.02-48.126 64.75-54.476 11.831-3.631 22.691 7.85 18.51 19.439z"/></g><g><path d="m504.849 153.175c-6.3 20.329-18.25 36.728-31.97 49.198.411-5.141.33-7.548.33-19.579 0-35.01-17.598-67.5-46.66-86.695 4.04-33.368-10.51-75.366-10.73-75.976-4.184-11.598 6.687-23.068 18.51-19.439 20.73 6.35 48.63 23.999 64.75 54.477 14.91 28.208 16.91 62.096 5.77 98.014z"/></g><g><path d="m68.45 345.345c-45-19.149-65.53-55.747-66.61-57.717-2.41-4.41-2.46-9.739-.11-14.189 11.86-22.529 28.01-35.658 43.44-43.288z"/></g><g><path d="m510.159 287.628c-1.08 1.97-21.6 38.568-66.6 57.717l23.27-115.194c15.43 7.63 31.58 20.759 43.44 43.288 2.35 4.45 2.301 9.779-.11 14.189z"/></g><path d="m379.57 253.96h-22.81c-21.01 0-38.87 15.719-41.54 36.568-13.158 103.068-11.51 87.899-12.03 101.005 4.47 2.07 8.79 4.45 12.9 7.1 26.75 17.165 39.947 52.125 21.61 88.365 30.26-10.419 53.94-36.258 60.55-68.936l35.34-174.911c-17.28 7.619-36.63 10.809-54.02 10.809zm-25.5 74.366c-8.28 0-15-6.71-15-14.999 0-8.28 6.72-14.999 15-14.999 8.29 0 15 6.72 15 14.999 0 8.29-6.71 14.999-15 14.999z"/><path d="m196.78 290.518c-2.67-20.839-20.53-36.558-41.54-36.558h-22.81c-17.38 0-36.72-3.19-54-10.799 4.85 23.909 14.73 73.016 35.32 174.901 6.62 32.728 30.36 58.597 60.69 68.986-18.12-35.723-5.686-70.35 20.25-87.545 4.51-2.98 9.24-5.64 14.12-7.93-.52-13.156 1.154 2.228-12.03-101.055zm-36.43 37.808c-8.29 0-15-6.71-15-14.999 0-8.28 6.71-14.999 15-14.999 8.28 0 15 6.72 15 14.999 0 8.29-6.72 14.999-15 14.999z"/><path d="m433.142 209.356c-19.524 13.698-46.775 14.606-53.572 14.606h-22.81c-36.06 0-66.71 26.979-71.3 62.757-13.057 102.251-11.754 91.022-11.93 95.695-11.536-1.829-23.55-1.83-35.05.01-.195-4.724 1.096 6.381-11.94-95.715-4.59-35.768-35.24-62.747-71.3-62.747h-22.81c-6.867 0-34.609-.927-54.177-15.044-10.76-7.762-9.463-19.054-9.463-26.124 0-40.898 33.22-73.876 73.88-73.876h226.66c40.67 0 73.88 32.978 73.88 73.876 0 6.941 1.4 18.517-10.068 26.562z"/><g><path d="m314.589 464.7c-5.74 17.325-25.74 47.3-58.531 47.3h-.078c-18.46-.022-32.141-8.382-43.635-21.995-7.309-8.542-12.445-17.493-15.217-26.557-4.441-14.469 1.364-30.476 14.113-38.932 28.555-18.895 63.376-16.889 88.652-.634 13.697 8.786 19.737 25.575 14.696 40.818z"/></g></g></svg>