<svg id="Capa_1" enable-background="new 0 0 512 512" height="512" viewBox="0 0 512 512" width="512" xmlns="http://www.w3.org/2000/svg"><g><path d="m150.43 52.602c-49.44-43.811-109.96-52.081-113.04-52.481-7.08-.9-13.82 3.31-16.11 10.07-14.13 41.701-10.17 97.312-3.23 140.723 26.762-52.501 75.727-83.072 132.38-98.312z"/><path d="m492.85 148.844c6.73-43.101 10.34-97.612-3.56-138.653-2.29-6.76-9.04-10.97-16.11-10.07-3.07.39-63.35 8.64-112.74 52.201 56.162 14.88 105.038 44.721 132.41 96.522z"/><path d="m287.06 333.309c.98-2.96-.25-6.16-3.05-7.96-2.87-1.84-5.94-3.4-9.11-4.64-12.611-4.831-24.998-4.672-37.86.01-3.4 1.34-6.65 3.03-9.67 5.04-2.29 1.51-3.4 4.41-2.64 6.89 2.368 7.756 8.054 15.084 13.74 20.771 9.784 9.784 25.551 9.542 35.05 0 5.58-5.544 11.068-12.636 13.54-20.111z"/><path d="m380.82 333.409c1.17-8.2 8.77-13.88 16.98-12.711l70.56 10.12c3.19-10.13 5.96-20.391 8.36-30.711 15.17-65.271 7.07-118.533-24.07-158.334-29.03-37.111-76.51-57.861-122.37-65.512v80.872c0 8.28-6.71 15-15 15-8.28 0-15-6.72-15-15v-85.201c-14.51-1.56-26.19-1.98-29.96-2.15h-.04v117.353c0 8.28-6.72 15-15 15-8.24 0-15-6.68-15-15v-117.302c-17.11.74-28.8 2.13-29.96 2.24h-.04v85.062c0 8.28-6.72 15-15 15-8.29 0-15-6.72-15-15v-80.612c-47.49 9.08-92 28.211-120.98 65.252-35.12 44.941-37.07 102.322-24.06 158.334 2.41 10.34 5.18 20.601 8.37 30.711l70.59-10.12c8.2-1.17 15.81 4.51 16.98 12.711 1.18 8.2-4.52 15.81-12.72 16.98-28.3 4.06-49.13 7.05-64.48 9.26 5.11 12.54 10.94 24.731 17.55 36.471l45.69-22.401c7.44-3.65 16.42-.58 20.07 6.86s.57 16.42-6.86 20.07l-42.72 20.951c7.41 10.37 15.55 20.24 24.5 29.491 29.26 30.311 66.84 50.181 107.49 57.621 26.182 4.805 54.38 4.029 74.08-.3l.1-.02c40.9-7.8 77.62-28.041 105.85-57.282 8.97-9.27 17.13-19.15 24.53-29.53l-42.69-20.931c-7.43-3.65-10.51-12.63-6.86-20.07s12.64-10.51 20.07-6.86l45.66 22.381c6.63-11.75 12.46-23.94 17.56-36.461l-64.46-9.25c-8.2-1.172-13.9-8.782-12.72-16.982zm-240.18-45.401c-8.28 0-15-6.72-15-15 0-8.29 6.72-15 15-15 8.29 0 15 6.71 15 15 0 8.28-6.71 15-15 15zm154.86 157.763h-.38c-15.37 0-29.26-6.45-39.12-16.78-9.86 10.33-23.75 16.78-39.12 16.78h-.38c-29.85 0-54.13-24.281-54.13-54.121 0-8.29 6.72-15 15-15s15 6.71 15 15c0 13.3 10.82 24.121 24.13 24.121h.38c13.3 0 24.12-10.82 24.12-24.121v-3.08c-9.027-2.539-17.119-7.31-23.76-13.95-9.268-9.268-17.307-20.486-21.19-33.171-4.64-15.13 1.42-31.871 14.74-40.701 27.565-18.261 62.747-17.793 89.43-.64 14.29 9.17 20.59 26.701 15.32 42.621-4.015 12.155-11.816 22.917-20.79 31.891-6.457 6.469-14.42 11.296-23.75 13.95v3.08c0 13.3 10.82 24.121 24.12 24.121h.38c13.31 0 24.13-10.82 24.13-24.121 0-8.29 6.72-15 15-15s15 6.71 15 15c0 29.841-24.28 54.121-54.13 54.121zm75.74-157.763c-8.28 0-15-6.72-15-15 0-8.29 6.72-15 15-15s15 6.71 15 15c0 8.28-6.72 15-15 15z"/><path d="m20.76 421.011c-7.43 3.65-10.51 12.64-6.86 20.081 3.669 7.464 12.682 10.485 20.07 6.86l53.74-26.35c-5.85-8.2-11.23-16.71-16.18-25.481z"/><path d="m12.875 335.034c-8.2 1.18-13.9 8.78-12.72 16.98 1.07 7.48 7.49 12.87 14.83 12.87 1.19 0-7.335 1.425 38.995-5.235-3.86-9.44-7.31-19.07-10.37-28.831z"/><path d="m478.03 447.951c7.396 3.629 16.405.596 20.07-6.86 3.65-7.44.57-16.43-6.86-20.081l-50.8-24.911c-4.94 8.77-10.32 17.28-16.18 25.481z"/><path d="m499.125 335.078-30.765-4.26c-3.06 9.75-6.5 19.38-10.36 28.821l36.865 5.14c8.352 1.161 15.823-4.632 16.98-12.72 1.18-8.2-4.52-15.801-12.72-16.981z"/></g></svg>