<svg id="Capa_1" enable-background="new 0 0 512 512" height="512" viewBox="0 0 512 512" width="512" xmlns="http://www.w3.org/2000/svg"><g><g><path d="m217.668 356.129 19.818 37.089-4.14 4.14c-7.849 7.839-20.609 7.839-28.458 0-7.839-7.849-7.839-20.609 0-28.448z"/><path d="m289.3 301.739-33.3 62.319-33.3-62.319 33.3-21.843z"/><path d="m307.113 368.91c7.839 7.839 7.839 20.599 0 28.448-7.849 7.839-20.61 7.839-28.458 0l-4.14-4.14 19.818-37.089z"/><path d="m340.282 81.149c-3.068 10.89-2.568 8.743-44.076 90.317-16.71 32.835-63.698 32.845-80.413 0-41.362-81.286-40.983-79.34-44.076-90.317-49.99 29.25-82.217 83.34-82.217 143.675v250.862c0 12.71 7.718 23.737 19.647 28.097 13.803 5.042 28.178-.892 34.383-10.515l13.623-21.732 25.14 29.822c11.899 14.134 33.681 14.214 45.68.09l27.727-32.037.301.371.301-.371 27.726 32.037c11.999 14.124 33.781 14.044 45.68-.09l25.14-29.822 13.623 21.732c6.205 9.623 20.579 15.557 34.383 10.515 11.929-4.36 19.647-15.387 19.647-28.097v-250.862c-.001-60.335-32.229-114.425-82.219-143.675zm-19.326 130.925c8.3 0 15.036 6.736 15.036 15.036s-6.736 15.036-15.036 15.036c-8.31 0-15.036-6.736-15.036-15.036s6.726-15.036 15.036-15.036zm-129.912 0c8.31 0 15.036 6.736 15.036 15.036s-6.726 15.036-15.036 15.036c-8.3 0-15.036-6.736-15.036-15.036s6.736-15.036 15.036-15.036zm137.33 206.545c-18.174 18.174-49.519 21.462-72.374-1.393-22.855 22.855-54.2 19.567-72.374 1.393-19.567-19.567-19.567-51.414 0-70.98l19.226-19.226-7.558-14.154c-6.886-12.871-2.867-28.629 9.342-36.638l35.996-23.607c9.237-6.058 21.305-6.184 30.734 0l35.996 23.607c12.209 8.009 16.229 23.767 9.343 36.638l-7.558 14.154 19.226 19.226c19.568 19.567 19.568 51.413.001 70.98z"/></g><g><path d="m307.213 83.505c0 .01-.01.02-.01.03-8.441 16.568-1.611 3.149-37.801 74.288-5.558 10.921-21.227 10.958-26.804 0l-37.801-74.288c-12.149-23.917-6.345-52.676 14.124-69.968 21.395-18.084 52.743-18.091 74.158-.01 20.469 17.301 26.273 46.06 14.134 69.948z"/></g></g></svg>