<svg id="Capa_1" enable-background="new 0 0 512 512" height="512" viewBox="0 0 512 512" width="512" xmlns="http://www.w3.org/2000/svg"><g><path d="m509.972 366.789-15.657-26.99c-13.367-23.039-37.113-38.187-63.316-40.888-1.35-12.472-4.774-24.628-10.043-35.933l36.414-38.384c20.31-21.407 20.311-54.953 0-76.375l-8.331-8.781c3.43-4.595 6.415-9.513 8.899-14.715 15.512-32.515 9.836-71.758-15.62-98.597-12.71-13.39-28.99-22.329-47.09-25.839-11.99-2.307-21.542 9.892-16.5 20.949 8.47 18.609 4.19 40.569-10.66 54.648-14.85 14.1-37.01 17.219-55.14 7.78-10.786-5.631-23.494 3.326-21.78 15.39 2.56 18.249 10.63 34.969 23.33 48.358 26.943 28.416 69.916 35.509 104.44 17.609 2.859-1.481 5.635-3.148 8.34-4.955l8.345 8.795c9.33 9.84 9.332 25.251.002 35.085l-31.362 33.059c-2.198-2.566-4.51-5.042-6.945-7.409-15.6-15.169-36.16-23.519-57.91-23.519h-17.09v-14.997c0-8.28-6.71-14.999-15-14.999-8.28 0-15 6.72-15 14.999v14.997h-72.6v-14.997c0-8.28-6.72-14.999-15-14.999-8.29 0-15 6.72-15 14.999v14.997h-17.09c-21.75 0-42.31 8.35-57.91 23.519-2.44 2.37-4.76 4.84-6.95 7.41l-31.36-33.059c-9.33-9.83-9.33-25.249 0-35.079l8.35-8.801c2.693 1.799 5.468 3.466 8.32 4.944 34.73 18.005 77.649 10.661 104.46-17.599 12.7-13.39 20.77-30.109 23.33-48.358 1.712-12.046-10.979-21.028-21.78-15.39-18.13 9.44-40.29 6.32-55.14-7.78-14.85-14.08-19.13-36.039-10.66-54.648 5.049-11.073-4.542-23.271-16.5-20.949-18.1 3.51-34.38 12.45-47.09 25.849-25.495 26.859-31.11 66.119-15.62 98.587 2.485 5.203 5.469 10.121 8.897 14.714l-8.337 8.783c-20.3 21.419-20.3 54.968.01 76.377l36.41 38.379c-5.27 11.3-8.7 23.459-10.04 35.929-26.2 2.7-49.95 17.849-63.32 40.899l-15.648 26.988c-4.16 7.16-1.72 16.339 5.44 20.499 7.231 4.179 16.369 1.682 20.5-5.45l15.66-26.989c8.15-14.04 22.33-23.489 38.16-25.809 2.692 16.691 8.851 31.818 18.38 45.978l-7.29 5.44c-16.81 12.54-28.17 30.799-31.99 51.418l-4.06 21.959c-1.5 8.15 3.88 15.969 12.03 17.479.92.17 1.84.25 2.74.25 7.09 0 13.4-5.05 14.73-12.28l4.06-21.949c2.44-13.17 9.69-24.819 20.42-32.829 11.399-7.599 6.188-2.984 24.93-22.569l45.85-47.918c16.44-17.149 39.49-26.989 63.25-26.989h22.32c23.73 0 46.75 9.81 63.17 26.909 70.59 71.967 59.373 61.628 71.648 69.752 10.73 8.01 17.98 19.659 20.42 32.829l4.06 21.949c1.33 7.23 7.64 12.28 14.73 12.28.9 0 1.82-.08 2.74-.25 8.15-1.51 13.53-9.33 12.03-17.479l-4.06-21.959c-3.82-20.619-15.18-38.879-31.99-51.418l-7.481-5.534c9.313-14.051 15.17-28.984 17.767-45.076 15.83 2.323 30.024 11.77 38.173 25.815l15.657 26.989c4.155 7.166 13.334 9.606 20.501 5.448 7.165-4.155 9.605-13.334 5.447-20.499z"/><path d="m308.858 354.893c-.04-.04-.08-.08-.12-.12-10.8-11.27-25.95-17.739-41.58-17.739h-22.32c-15.63 0-30.78 6.47-41.58 17.739l-59.11 61.768c9.049 5.43 19.572 10.151 30.805 13.534-8.733 13.401-13.456 29.114-13.456 45.276v21.649c0 8.284 6.716 15 15 15s15-6.716 15-15v-21.65c0-12.796 4.632-25.155 13.043-34.8l4.116-4.721c5.307.242 89.002.256 94.687.004l4.113 4.716c8.411 9.644 13.043 22.003 13.043 34.8v21.651c0 8.284 6.716 15 15 15s15-6.716 15-15v-21.65c0-16.144-4.713-31.839-13.427-45.23 11.073-3.336 21.713-8.055 31.716-14.13z"/></g></svg>