<svg id="Capa_1" enable-background="new 0 0 512 512" height="512" viewBox="0 0 512 512" width="512" xmlns="http://www.w3.org/2000/svg"><g><path d="m238.32 467.42c-14.68-1.88-28.84-6.07-42-12.29 1.51 31.62 27.7 56.87 59.68 56.87 31.97 0 58.15-25.23 59.68-56.83-13.24 6.25-27.34 10.37-41.99 12.25-11.715 1.504-23.691 1.507-35.37 0z"/><path d="m198.89 47.878c-17.2-26.43-36.25-43.23-37.34-44.18-5.65-4.93-14.07-4.93-19.72 0-2.66 2.32-65.08 57.61-65.08 128.151 0 14.76 1.34 29.24 3.9 42.89 16.074-61.622 61.53-108.976 118.24-126.861z"/><path d="m370.171 3.698c-5.65-4.93-14.07-4.93-19.72 0-1.09.95-20.15 17.75-37.35 44.2 56.567 17.98 101.814 64.513 118.251 126.841 2.56-13.65 3.9-28.13 3.9-42.89-.001-70.541-62.421-125.831-65.081-128.151z"/><path d="m211.46 204.889c0-28.12-10.66-54.85-30.02-75.26-.07-.07-.14-.14-.2-.21l-23.05-25.27c-32.214 27.475-53.54 70.425-53.54 117.431 0 37.709 8.171 75.506 24.39 110.451l49.72-49.14c20.302-19.953 32.7-47.817 32.7-78.002zm-47.66 17.61c0-7.65 6.21-13.85 13.86-13.85s13.85 6.2 13.85 13.85c0 7.66-6.2 13.86-13.85 13.86s-13.86-6.2-13.86-13.86z"/><path d="m271.11 217.549c-3.59-39.776 9.762-79.071 37.59-108.461l20.12-22.05c-46.836-25.692-108.321-21.217-145.651-.01l20.13 22.06c27.824 29.384 41.181 68.677 37.59 108.461-2.99 32.83-17.59 63.64-41.07 86.71l-55.93 55.28c5.193 8.423 7.783 11.864 22.47 32.63 17.63 24.91 44.81 41.22 74.64 45.33v-43.68c-16.502-5.705-30.004-23.228-34.5-37.89-4.02-13.12 1.23-27.62 12.77-35.27 10.92-7.23 23.64-11.06 36.78-11.06 12.8 0 25.24 3.65 35.98 10.54 12.34 7.93 17.78 23.09 13.22 36.86-4.702 14.202-18.12 31.474-34.25 36.85v43.65c30.7-4.229 57.471-21.072 74.64-45.33 14.405-20.367 17.251-24.175 22.48-32.62l-55.94-55.29c-23.479-23.07-38.079-53.88-41.069-86.71z"/><path d="m353.8 104.168-23.04 25.25c-.06.07-.13.14-.2.21-19.36 20.41-30.02 47.14-30.02 75.26 0 30.186 12.397 58.05 32.7 78l49.72 49.14c15.865-34.105 24.39-71.985 24.39-110.451.001-47.14-21.434-90.107-53.55-117.409zm-19.37 132.191c-7.65 0-13.85-6.2-13.85-13.86 0-7.65 6.2-13.85 13.85-13.85 7.66 0 13.86 6.2 13.86 13.85 0 7.66-6.2 13.86-13.86 13.86z"/><path d="m267.14 361.759c3.885-3.886 7.907-8.951 9.63-14.19.29-.89-.27-1.74-.96-2.18-12.137-7.809-27.886-7.729-39.97.28-.5.33-.8 1-.65 1.47 1.39 4.56 4.77 9.62 9.76 14.62 6.069 6.09 16.074 6.138 22.19 0z"/></g></svg>