<?xml version="1.0" encoding="iso-8859-1"?>
<!-- Generator: Adobe Illustrator 19.0.0, SVG Export Plug-In . SVG Version: 6.00 Build 0)  -->
<svg xmlns="http://www.w3.org/2000/svg" xmlns:xlink="http://www.w3.org/1999/xlink" version="1.1" id="Layer_1" x="0px" y="0px" viewBox="0 0 512.001 512.001" style="enable-background:new 0 0 512.001 512.001;" xml:space="preserve" width="512" height="512">
<g>
	<path d="M254.733,91.041c-4.702,0.059-9.016,2.206-11.851,5.98c-15.308,20.42-14.048,49.058,2.52,68.086   c4.863-18.926,12.261-35.977,22.075-50.889c1.582-2.417,2.432-5.273,2.432-8.218c0-8.205-6.621-14.844-14.799-14.96H254.733z"/>
	<path d="M254.909,512.001c41.902,0,76.901-19.266,86.878-45.156c-26.949,15.035-64.081,15.156-86.878,15.156   s-59.93-0.121-86.878-15.156C178.008,492.733,213.007,512.001,254.909,512.001z"/>
	<path d="M419.455,120.942c38.452-40.4,33.779-104.403,33.56-107.128l-1.069-13.403l-13.433-0.41   c-2.651,0.117-67.529-2.164-105.981,38.192c-7.055,7.423-12.894,16.439-17.853,26.371c39.044,8.855,71.276,34.753,89.385,69.333   C409.642,129.953,414.896,125.73,419.455,120.942z"/>
	<path d="M92.546,120.942c4.092,4.299,8.718,8.172,13.645,11.796c18.43-34.644,51.134-60.242,90.941-68.533   c-4.926-9.783-10.704-18.68-17.677-26.012C141.018-2.163,76.169,0.089,73.488,0.001l-13.433,0.41l-1.069,13.403   C58.767,16.539,54.094,80.542,92.546,120.942z"/>
	<path d="M389.909,229.018v-33.018c0-53.564-40.481-97.394-92.366-103.722c1.406,4.352,2.366,8.906,2.366,13.722   c0,8.818-2.549,17.358-7.368,24.697c-11.279,17.139-18.691,38.013-22.046,62.065l-4.849,35.186l-38.936-38.936   c-25.644-25.644-31.458-64.86-15.998-96.557c-51.572,6.998-90.804,50.424-90.804,103.544v33.018   c0,40.92,11.519,81.072,32.296,115.855c20.446-38.776,57.46-72.872,102.704-72.872s82.258,34.096,102.704,72.872   C378.39,310.09,389.909,269.939,389.909,229.018z M194.909,211.001h-30v-30h30V211.001z M344.909,211.001h-30v-30h30V211.001z"/>
	<path d="M254.909,302.001c-49.688,0-90,63.53-90,105c0,37.632,33.003,45,90,45s90-7.368,90-45   C344.909,365.531,304.597,302.001,254.909,302.001z M239.909,392.001h-30v-30h30V392.001z M299.909,392.001h-30v-30h30V392.001z"/>
</g>















</svg>
