<svg id="Capa_1" enable-background="new 0 0 512 512" height="512" viewBox="0 0 512 512" width="512" xmlns="http://www.w3.org/2000/svg"><g><g id="XMLID_1_"><path d="m501.82 155.77c10.07 15.38 12.83 34.31 7.57 51.93-8.76 29.4-36.98 48.86-78.36 44.7-16.95 10.86-38.26 16.89-59.44 15.14 0 0 .08-13.12 5.51-18.69l6.24-6.43c24-24.71 37.5-57.77 37.5-92.42 0-24.75-7.28-48.7-21.06-69.25l-24.8-36.99c-7.58-11.3-17.46-20.54-28.79-27.23 16.25.34 34.77 4.68 54 16.78 16.65 10.48 47.79 40.23 101.63 122.46z"/><path d="m307.4 327.29c-.13 1.07-4.73 40.17-4.83 43.36-.76 38.04-18.17 73-46.84 96.43-49.36 40.54-122.03 37.6-168.23-8.36-24.03-23.88-37.26-55.64-37.26-89.43v-5.26c0-18.62 20.12-30.35 36.34-21.13l12.39 7.04 11.74-6.8c16.24-9.37 36.5 2.33 36.5 21.05v4.31c0 16.15 13.21 30.31 29.72 30 7.68-.14 14.89-3.24 20.3-8.75 6.37-6.46 6.51-14.83 5.69-23.84l-2.56-40.07c-6.59-4.21-11.59-9.44-15.43-14.95-17.31 17.11-38.31 20.83-42.69 20.83-7.17 0-13.51-5.16-14.76-12.46-1.41-8.17 4.07-15.92 12.24-17.33 14.22-2.44 26.32-11.46 32.75-24.28-.24-1.48.26 1.56-2.81-17.16-.42-2.37.48-18.43-13.23-32.53l-6.25-6.45c-31.97-32.91-39.33-84.87-13.04-124.05l24.81-37.01c13.25-19.79 36.95-29.72 60.36-25.3l19.9 3.78c8.6 1.61 17.18 1.54 25.38 0l19.87-3.78c23.42-4.42 47.12 5.51 60.37 25.3l24.82 37.02c26.2 39.07 19.08 91.02-13.06 124.06l-6.22 6.41c-13.57 13.95-12.87 29.91-13.19 32.17l-1.96 14.42c.31.51.6 1.04.85 1.61 6.18 13.85 18.8 23.65 33.75 26.22 8.16 1.41 13.64 9.16 12.24 17.33-1.26 7.3-7.6 12.46-14.77 12.46-.84 0-1.69-.07-2.55-.22-16.17-2.78-30.69-10.66-41.69-22.16-4.9 7.38-11.12 13.24-18.65 17.52zm22.08-175.11c0-8.28-6.72-15-15-15-8.29 0-15 6.72-15 15s6.71 15 15 15c8.28 0 15-6.72 15-15zm-119.42 0c0-8.28-6.71-15-15-15-8.28 0-15 6.72-15 15s6.72 15 15 15c8.29 0 15-6.72 15-15z"/><path d="m165.81 16.53c-11.33 6.69-21.21 15.93-28.79 27.23l-24.8 36.99c-13.78 20.55-21.06 44.5-21.06 69.25 0 34.65 13.5 67.71 37.5 92.42l6.24 6.43c5.43 5.57 5.51 18.69 5.51 18.69-21.18 1.75-42.49-4.28-59.44-15.14-41.38 4.16-69.6-15.3-78.36-44.7-5.26-17.62-2.5-36.55 7.57-51.93 53.84-82.23 84.98-111.98 101.63-122.46 19.23-12.1 37.75-16.44 54-16.78z"/></g></g></svg>