<svg id="Capa_1" enable-background="new 0 0 512 512" height="512" viewBox="0 0 512 512" width="512" xmlns="http://www.w3.org/2000/svg"><g><path d="m475.699 74.934c-.04-40.47-32.98-74.079-73.429-74.919-21.03-.4-41.4 8.06-55.909 23.29-8.92 9.38-22.63 13.59-35.78 11.01-35.53-6.986-73.615-6.989-109.159 0-13.15 2.58-26.87-1.64-35.81-11.02-14.47-15.2-34.8-23.7-55.799-23.28-40.46.79-73.429 34.36-73.509 74.839-.02 10.67 2.16 21 6.49 30.7 14.166 31.695 7.83 57.578 7.83 71.399 0 12.8 2.22 25.4 6.62 37.6 41.5-9.38 94.009-24.25 113.299-32.69 54.309-23.79 116.619-23.79 170.928 0 20.04 8.78 72.519 24.64 112.839 33.88 4.69-12.57 7.06-25.58 7.06-38.79 0-13.574-6.37-39.521 7.87-71.469 4.299-9.65 6.469-19.93 6.459-30.55zm-359.967 19.7c-8.28 0-15-6.72-15-15 0-8.29 6.72-15 15-15 8.29 0 15 6.71 15 15 0 8.28-6.71 15-15 15zm280.538 0c-8.29 0-15-6.72-15-15 0-8.29 6.71-15 15-15 8.28 0 15 6.71 15 15 0 8.28-6.72 15-15 15z"/><path d="m439.839 243.192c-38.404 55.373-114.085 81.629-183.828 81.629h-.01c-70.644 0-146.706-26.907-184.618-82.749 42.01-9.83 91.479-24.1 111.189-32.73 46.67-20.44 100.199-20.44 146.869 0 20.789 9.111 69.369 24.051 110.398 33.85z"/><g><path d="m143.282 512h-91.029c-33.827 0-47.473-43.624-19.64-62.89 7.44-5.15 16.03-9.75 25.56-13.68-35.73-50.309-41.95-91.409-17.48-115.889 12.35-12.35 25.07-18.02 36.78-19.95.66 10.03 1.67 21.59 3.17 33.87 4.43 35.85 14.52 89.719 37.51 142.819 5.849 13.51 14.479 25.66 25.129 35.72z"/></g><g><path d="m459.749 512h-90.879c8.701-8.225 13.89-15.96 13.89-15.96 20.204-28.949 36.48-92.907 42.6-124.389 4.841-24.855 7.981-49.596 9.34-71.919 12.13 2.03 24.73 7.92 36.61 19.81 24.47 24.48 18.24 65.589-17.48 115.889 9.54 3.94 18.12 8.53 25.56 13.68 27.814 19.253 14.208 62.889-19.641 62.889z"/></g><g><path d="m403.26 316.282c-5.567 55.664-20.442 110.576-36.93 148.049-8.796 20.428-25.23 34.817-43.53 42.049-9.056 3.555-18.946 5.62-29.41 5.62h-74.779c-10.387 0-20.393-2.023-29.41-5.62-19.36-7.67-35.18-22.76-43.52-42.02-19.917-46.01-31.959-98.864-36.73-147.939 85.483 51.257 208.861 51.237 294.309-.139z"/></g></g></svg>