<svg id="Capa_1" enable-background="new 0 0 512 512" height="512" viewBox="0 0 512 512" width="512" xmlns="http://www.w3.org/2000/svg"><g><path d="m114.195 103.343-6.311-27.71h-92.835c-8.307 0-15.049 6.72-15.049 15 0 30.1 11.658 58.479 32.838 79.929 9.411 9.53 20.236 17.21 31.995 22.84 7.136-32.616 23.747-64.795 49.362-90.059z"/><path d="m397.805 103.343 6.311-27.71h92.835c8.307 0 15.049 6.72 15.049 15 0 30.1-11.658 58.479-32.838 79.929-9.411 9.53-20.236 17.21-31.995 22.84-7.136-32.616-23.747-64.795-49.362-90.059z"/><path d="m211.695 252.072v-40.92c0-24.02-19.604-43.56-43.703-43.56h-62.826c-20.044 42.632-19.37 92.699 2.739 135.239 1.183 2.271 40.8 59.846 44.346 65.639l18.762-17.98c26.234-26.338 40.682-61.288 40.682-98.418zm-62.355-13.9c0-8.28 6.742-15 15.049-15 8.317 0 15.049 6.72 15.049 15s-6.732 15-15.049 15c-8.307 0-15.049-6.72-15.049-15z"/><path d="m321.455 371.771c-31.965-32.02-49.563-74.539-49.563-119.699v-40.92c0-40.56 33.109-73.559 73.802-73.559h44.215c-6.847-8.628-14.336-16.216-22.674-23.09-1.142-1.463-.575-2.582.602-7.76l.02-.05c.02-.1.04-.2.07-.3l16.424-72.119c1.706-7.5-2.558-15.08-9.882-17.54l-47.546-15.95c-7.314-2.45-15.31 1.01-18.501 8.02l-36.098 79.299h-30.962l-36.098-79.299c-3.19-7.01-11.187-10.47-18.501-8.02l-47.546 15.95c-7.324 2.46-11.588 10.04-9.882 17.54l16.424 72.139c1.328 5.801 2.092 7.08.12 8.8-9.062 7.487-16.104 14.768-22.092 22.38h44.205c40.694 0 73.802 33 73.802 73.559v40.92c0 45.16-17.598 87.679-49.563 119.699-.08.08-.161.15-.241.23l-27.33 26.2c1.987 8.1 3 16.46 3 24.92v.84c0 48.549 39.62 88.039 88.34 88.039 48.742 0 88.33-39.302 88.33-88.039 0-9.56 1.274-18.95 3.782-27.98v-.01l-26.116-23.69c-.19-.16-.361-.34-.541-.51zm-89.695 61.47c-8.307 0-15.049-6.71-15.049-15 0-8.28 6.742-15 15.049-15s15.049 6.72 15.049 15c.001 8.29-6.741 15-15.049 15zm50.165 0c-8.307 0-15.049-6.71-15.049-15 0-8.28 6.742-15 15.049-15s15.049 6.72 15.049 15c0 8.29-6.742 15-15.049 15z"/><path d="m415.403 184.913c-1.936-5.91-4.244-11.7-6.893-17.32h-62.816c-24.099 0-43.703 19.54-43.703 43.56v40.92c0 37.06 14.397 71.949 40.543 98.279l18.551 16.83c3.19-4.957 43.653-62.32 44.707-64.349 18.252-35.136 22.829-77.6 9.622-117.879-.001-.011-.011-.021-.011-.041zm-71.073 68.259c-8.307 0-15.049-6.72-15.049-15s6.742-15 15.049-15 15.049 6.72 15.049 15-6.742 15-15.049 15z"/></g></svg>