<svg id="Capa_1" enable-background="new 0 0 512 512" height="512" viewBox="0 0 512 512" width="512" xmlns="http://www.w3.org/2000/svg"><g><g id="XMLID_1_"><path d="m450.79 62.87c41.69 11.21 66.39 54.06 55.15 95.77-3.6 13.38-10.67 25.58-20.53 35.27-4.02-18.35-9.81-37.11-10.31-38.11v-.02c-11.21-34.13-26.69-66.25-48.96-95.25 8.43-.53 16.82.23 24.65 2.34z"/><path d="m466.33 273.7c4.35 65.1-8.04 118.34-36.82 158.21-22.32 30.94-54.28 53.58-95.03 67.3-49.29 16.62-102.97 17.48-154.83 0-65.54-22.07-141.62-79.12-131.86-225.51 2.47-36.73 8.4-73.22 19.49-107.82 19.03-59.48 53.8-111.52 107.16-143.04 24.96-14.77 53.17-22.66 81.65-22.83.32-.01.65-.01.97-.01 28.8 0 57.38 7.9 82.63 22.84 53.24 31.5 87.64 82.91 106.89 142.23 11.24 34.69 17.28 71.76 19.75 108.63zm-61.29-56.67c1.86-26.95-8.27-50.79-28.51-67.14-25.47-20.56-65.92-27.63-100.65-17.6-17.82 5.18-21.94 5.18-39.76 0-34.74-10.03-75.18-2.96-100.65 17.6-20.25 16.35-30.37 40.19-28.52 67.14 1.77 25.62 15.46 46.54 27.53 65 13.53 20.65 26.86 39.25 29.09 93.91 1.8 44.2 27.03 65.11 47.87 74.86 27.13 12.69 59.64 13.78 89.11 0 20.85-9.75 46.08-30.66 47.88-74.85 2.21-53.98 15.2-72.73 29.09-93.92 12.06-18.46 25.75-39.38 27.52-65z"/><path d="m357.69 173.23c12.77 10.31 18.63 24.35 17.43 41.73-1.61 23.48-19.29 43.81-32.88 66.68-18.9 31.77-22.63 64.87-23.79 93.08-.24 5.87-1.03 11.27-2.39 16.21-5.47-2.87-10.87-6.13-16.14-9.8-25.54-17.71-60.17-17.58-86.17.32-5.73 3.94-11.59 7.42-17.52 10.43-1.52-5.2-2.43-10.9-2.68-17.16-1.16-28.21-4.89-61.31-23.79-93.09-13.76-23.08-31.26-43.27-32.89-66.66-1.19-17.39 4.67-31.43 17.44-41.74 17.86-14.42 48.05-19.47 73.47-12.12 23.47 6.79 32.96 6.8 56.43 0 25.34-7.33 55.57-2.34 73.48 12.12zm-20.2 48.98c0-8.28-6.71-15-15-15-8.28 0-14.99 6.72-14.99 15s6.71 14.99 14.99 14.99c8.29 0 15-6.71 15-14.99zm-30.53 95.39c5.3-6.37 4.43-15.83-1.94-21.12-6.37-5.3-15.82-4.43-21.12 1.94l-14.6 17.54c-5.3 6.38-4.43 15.83 1.94 21.12 6.36 5.3 15.82 4.44 21.13-1.94zm-66.2 19.48c6.37-5.29 7.23-14.75 1.94-21.12l-14.6-17.54c-5.3-6.37-14.76-7.24-21.12-1.94-6.37 5.29-7.24 14.75-1.94 21.12l14.59 17.54c5.35 6.43 14.84 7.2 21.13 1.94zm-36.25-114.87c0-8.28-6.72-15-15-15-8.29 0-15 6.72-15 15s6.71 14.99 15 14.99c8.28 0 15-6.71 15-14.99z"/><path d="m282.82 405.77c5.53 3.84 11.2 7.33 16.94 10.46-23.78 19.23-62.64 19.26-86.68.69 6-3.2 11.91-6.78 17.68-10.77 15.79-10.86 36.71-11.01 52.06-.38z"/><path d="m61.21 62.87c8.5-2.29 17.59-3 26.67-2.21-22.02 28.68-38.63 62.71-49.17 96.08-4.11 12.82-7.52 25.68-10.39 38.89-10.62-9.84-18.38-22.55-22.26-36.99-11.24-41.68 13.44-84.55 55.15-95.77z"/></g></g></svg>