<svg id="Capa_1" enable-background="new 0 0 512 512" height="512" viewBox="0 0 512 512" width="512" xmlns="http://www.w3.org/2000/svg"><g><g><path d="m33.69 171.2c31.084-14.041 53.778-9.174 88.7-6.29 46.599-23.78 97.489-16.729 133.61 11.18 37.009-28.712 88.192-34.471 133.65-11.16 35.964-2.983 58.01-7.521 88.58 6.22l.03.01.04.02c6.75 3.05 13.16 6.79 19.07 11.11 4.055-7.296 1.353-16.452-5.89-20.43l-41.91-23.01 2.37-42.86c.45-8.26-5.87-15.34-14.14-15.8l-53.02-2.97-13.38-41.58c-2.529-7.875-11.009-12.255-18.94-9.66l-53 17.31-32.46-34.75c-5.944-6.341-15.968-6.352-21.92 0l-32.46 34.75-53-17.31c-7.925-2.593-16.41 1.78-18.94 9.66l-13.38 41.58-53.02 2.97c-8.27.46-14.59 7.54-14.14 15.8l2.37 42.86-41.91 23.01c-7.261 3.988-9.924 13.14-5.91 20.4 5.93-4.33 12.3-8.04 19-11.06zm277.43-81.42c0-8.28 6.71-15 15-15 8.28 0 15 6.72 15 15v20.17c0 8.29-6.72 15-15 15-8.29 0-15-6.71-15-15zm-70.08-12c0-8.27 6.7-14.98 14.96-15h.04c8.28 0 15 6.72 15 15v20.18c0 8.28-6.72 15-15 15h-.04c-8.26-.02-14.96-6.73-14.96-15zm-70.08 12c0-8.28 6.71-15 15-15 8.28 0 15 6.72 15 15v20.17c0 8.29-6.72 15-15 15-8.29 0-15-6.71-15-15z"/><path d="m480.93 207.44c-15.625-11.881-34.963-17.074-52.99-15.58 41.23 39.479 49.221 93.78 37.75 149.43 27.27-12.24 46.31-39.65 46.31-71.43 0-24.78-11.79-47.81-31.07-62.42z"/><path d="m84.08 191.85c-17.892-1.476-37.175 3.606-52.95 15.55-19.31 14.6-31.13 37.65-31.13 62.46 0 31.77 19.04 59.19 46.31 71.42-11.533-55.911-3.097-111.129 37.77-149.43z"/><path d="m371.03 189.22c-40.897-19.065-90.286-5.914-115.03 29.88-24.698-35.714-74.054-48.985-115.02-29.88-62.666 29.147-79.821 85.143-63.76 152.9 8.779 41.197 30.783 87.921 63.79 120.38 27.157 26.749 62.659 42.47 99.99 45.72v-88.1c-16.275-5.845-28.811-23.082-32.93-36.49-3.97-12.95.93-26.72 12.18-34.27 21.08-14.14 49.02-14.71 70.85-.54 11.88 7.72 17.09 22.45 12.66 35.84-4.48 13.503-17.121 30.013-32.76 35.52v88.04c37.232-3.241 72.83-18.962 99.97-45.7 32.717-32.173 55.258-79.617 63.81-120.4.01-.03.02-.07.02-.1 16.01-67.634-1.076-123.62-63.77-152.8zm-197.05 155.32c-8.28 0-15-6.72-15-15s6.72-15 15-15c8.29 0 15 6.72 15 15s-6.71 15-15 15zm164.04 0c-8.29 0-15-6.72-15-15s6.71-15 15-15c8.28 0 15 6.72 15 15s-6.72 15-15 15z"/></g><path d="m276.49 374.442c-12.758-8.182-29.027-7.877-41.33.3-.66.429-1.021 1.271-.82 1.911 1.45 4.734 4.94 9.968 10.08 15.131 6.462 6.467 16.97 6.325 23.25 0 4.98-4.994 8.42-10.078 9.94-14.681.37-1.1-.3-2.131-1.12-2.661z"/></g></svg>