<svg id="Capa_1" enable-background="new 0 0 512 512" height="512" viewBox="0 0 512 512" width="512" xmlns="http://www.w3.org/2000/svg"><g><g><path d="m140.257 31.576c-41.303 24.026-71.057 61.463-83.873 110.993-4.99-7.25-9.31-15.01-12.95-23.291-13.12-29.811-16.99-65.452-11.49-105.923.91-6.73 6.23-12 12.96-12.86.83-.11 20.711-2.54 45.761 4.47 14.411 4.04 32.441 11.781 49.592 26.611z"/></g><g><path d="m468.566 119.279c-3.63 8.24-7.93 15.98-12.891 23.201-12.697-49.433-42.521-87.546-83.602-111.173 17.05-14.661 34.941-22.331 49.261-26.341 25.051-7.01 44.931-4.58 45.761-4.47 6.73.86 12.05 6.13 12.96 12.86 5.502 40.471 1.631 76.112-11.489 105.923z"/></g><g><path d="m320.932 369.296c-.09-.06-.17-.13-.25-.19-38.081-28.531-91.283-28.531-129.364 0-.04.04-.09.07-.14.11l-53.832 39.321c2.159 8.066 7.336 40.596 31.351 67.452 21.361 23.881 50.722 36.001 87.263 36.011h.04c36.561 0 65.932-12.12 87.293-36.011 23.952-26.785 28.909-58.597 31.521-68.042zm-84.473 72.752c-1.124 8.421-8.922 14.004-16.85 12.89-8.21-1.09-13.98-8.63-12.89-16.84.65-4.91-2.81-9.44-7.73-10.09-8.21-1.09-13.98-8.64-12.89-16.851 1.09-8.21 8.63-13.98 16.85-12.89 21.31 2.83 36.341 22.47 33.51 43.781zm76.553-14.04c-4.92.65-8.38 5.18-7.73 10.09 1.18 8.888-5.654 16.811-14.591 16.971-7.53.15-14.13-5.38-15.15-13.02-2.83-21.311 12.2-40.951 33.511-43.781 8.22-1.09 15.76 4.68 16.85 12.89 1.09 8.209-4.68 15.759-12.89 16.85z"/><path d="m427.945 155.45c-5.99-26.801-17.6-49.931-34.471-68.742-8.16-9.11-17.611-17.271-28.151-24.281-.77 5.8-1.76 11.55-2.92 17.101-7.42 35.601-23.281 68.602-45.851 95.413-17.511 20.811-33.411 31.331-36.431 33.221-15.513 9.785-35.251 8.701-49.541-2.14-9.82-7.46-15.811-18.641-16.971-30.491-10.958 2.222-21.859.132-30.821-5.14-14.8-8.71-23.111-25.361-21.171-42.401 2.2-19.386-3.69-50.25-8.39-69.222-12.196 7.235-24.327 16.966-34.351 28.071-19.111 21.146-30.807 47.057-35.921 74.182-10.84 55.241.652 144.079 40.701 214.286.82 1.44 1.61 2.89 2.37 4.35l47.381-34.611c24.021-17.98 52.582-27.481 82.592-27.481 29.991 0 58.522 9.49 82.542 27.441l47.661 34.201c.69-1.31 1.4-2.6 2.13-3.89 41.021-71.889 52.277-163.43 39.613-219.867zm-261.568 112.153c-8.29 0-15-6.71-15-15 0-8.28 6.71-15 15-15 8.28 0 15 6.72 15 15 .001 8.29-6.719 15-15 15zm179.246 0c-8.28 0-15-6.71-15-15 0-8.28 6.72-15 15-15 8.29 0 15 6.72 15 15 0 8.29-6.71 15-15 15z"/></g><g><path d="m337.527 28.536c.009 9.421-.55 18.788-1.668 27.822-.009.081-.018.153-.027.234-8.322 66.38-46.845 110.523-71.701 126.191-10.581 6.667-23.782-3.397-20.177-15.327 4.364-14.533 1.524-33.231-2.623-48.369-12.216 12.937-26.281 23.143-28.625 24.811-9.515 6.771-22.598-.943-21.277-12.541 2.056-18.203-.784-44.546-8.213-76.2-1.812-7.717-3.904-15.795-6.23-24.018-1.875-6.626 1.533-13.605 7.916-16.201 46.224-18.953 98.686-18.508 144.448 1.181 4.958 2.139 8.168 7.016 8.177 12.417z"/></g></g></svg>