<svg id="Capa_1" enable-background="new 0 0 512 512" height="512" viewBox="0 0 512 512" width="512" xmlns="http://www.w3.org/2000/svg"><g><g><path d="m396.212 295.999v-40.723c-15.421 5.145-32.794 6.296-49.885 2.543-15.69 10.844-34.495 16.832-53.79 16.832-12.656 0-25.033-2.503-36.538-7.35-11.505 4.846-23.881 7.35-36.538 7.35-19.295 0-38.1-5.988-53.79-16.832-16.28 3.574-32.952 2.897-49.885-2.543v40.713c-18.905 18.92-27.759 42.188-27.486 66.426.531 49.164 40.813 89.286 90.247 90.458 5.778 30.97 31.471 54.831 62.431 59.107v-102.103c-9.512-4.075-17.252-11.896-20.977-21.949-2.884-7.77 1.081-16.421 8.852-19.305 7.78-2.884 16.421 1.081 19.305 8.862 1.212 3.244 4.336 5.427 7.8 5.437h.08c3.464-.01 6.589-2.193 7.8-5.437 2.884-7.78 11.525-11.745 19.305-8.862 7.77 2.884 11.735 11.535 8.852 19.305-3.725 10.053-11.465 17.873-20.977 21.949v102.123c31.761-4.271 56.46-28.683 62.341-59.107 49.998-.605 90.348-41.272 90.348-91.499.001-24.782-9.942-48.233-27.495-65.395zm-201.592 29.579c-8.301 0-15.02-6.729-15.02-15.02s6.719-15.02 15.02-15.02c8.291 0 15.02 6.728 15.02 15.02 0 8.291-6.729 15.02-15.02 15.02zm122.76 0c-8.291 0-15.02-6.729-15.02-15.02s6.729-15.02 15.02-15.02c8.301 0 15.02 6.728 15.02 15.02-.001 8.291-6.719 15.02-15.02 15.02z"/></g><g><path d="m162.649 35.28c-33.89 3.905-62.507 25.864-75.568 55.993-4.175 3.284-8.06 6.919-11.625 10.854-3.485-23.09-1.111-54.421 17.613-93.582 3.384-7.079 11.655-10.364 18.975-7.53 1.501.581 26.874 10.644 50.605 34.265z"/></g><g><path d="m436.545 102.127c-3.565-3.935-7.45-7.57-11.625-10.854-13.068-30.144-41.694-52.09-75.568-55.993 23.731-23.621 49.104-33.684 50.606-34.265 7.319-2.834 15.59.451 18.975 7.53 18.723 39.161 21.096 70.492 17.612 93.582z"/></g><g><path d="m431.008 165.554c0 47.637-49.183 77.908-91.329 58.546-21.697 23.266-57.202 27.34-83.679 9.142-26.538 18.24-62.034 14.068-83.679-9.142-42.17 19.373-91.329-10.93-91.329-58.546 0-22.62 11.946-43.487 30.99-55.072 12.023-40.027 58.405-57.93 94.243-36.948 25.65-31.272 73.887-31.286 99.549 0 35.908-21.023 82.246-2.992 94.243 36.948 19.045 11.585 30.991 32.453 30.991 55.072z"/></g></g></svg>