<svg id="Capa_1" enable-background="new 0 0 512 512" height="512" viewBox="0 0 512 512" width="512" xmlns="http://www.w3.org/2000/svg"><g><path d="m164.709 377.42h-94.136c-22.337 0-40.514-18.17-40.514-40.51 0-11.682-.612-17.85 3.05-26.68-5.199-12.29-7.959-25.44-7.789-38.62-27.837 23.351-25.256 53.379-25.256 65.3 0 38.88 31.625 70.51 70.51 70.51h94.136c22.327 0 40.504 18.18 40.504 40.52v14.3c0 8.28 6.709 15 14.998 15 8.279 0 14.998-6.72 14.998-15v-14.3c-.002-38.88-31.627-70.52-70.501-70.52z"/><path d="m506.818 220.64c-14.628-27.51-35.595-50.99-62.421-69.98 6.859-11.7 10.538-25.05 10.538-38.89 0-42.46-34.545-77.01-77.009-77.01-38.494 0-70.469 28.4-76.109 65.34-18.499-2.269-40.041-3.66-63.041-3.66-61.671 0-109.164 17.52-141.149 52.06-30.92 33.39-42.264 76.409-42.264 121.63 0 41.35 33.645 75 74.989 75h137.44c8.289 0 14.998-6.72 14.998-15 0-8.16-6.499-14.79-14.608-14.99-1.68-.13-15.778.24-18.657-.25h-.05c-24.216-2.47-43.173-22.99-43.173-47.84v-53.79c0-26.18-12.298-41.48-38.464-41.48-8.289 0-14.998-6.72-14.998-15s6.709-15 14.998-15c42.644 0 68.34 28.65 68.45 71.28 0 .07.01.13.01.2v53.79c0 9.82 7.859 17.84 17.627 18.08h68.86v11.91c0 26.51 21.577 48.09 48.083 48.09h25.376c8.289 0 14.998-6.72 14.998-15 0-8.29-6.709-15-14.998-15h-25.376c-9.969 0-18.087-8.12-18.087-18.09v-11.91h115.223c33.118 0 54.337-35.246 38.814-64.49zm-100.255 4.49c-8.289 0-14.998-6.72-14.998-15 0-8.29 6.709-15 14.998-15 8.279 0 14.998 6.71 14.998 15-.001 8.28-6.72 15-14.998 15z"/></g></svg>