<svg id="Capa_1" enable-background="new 0 0 512 512" height="512" viewBox="0 0 512 512" width="512" xmlns="http://www.w3.org/2000/svg"><g><path d="m467.611 134.525 6.509-7.165c14.92-16.402 21.93-38.439 19.25-60.456-5.36-43.728-46.731-74.102-90.29-65.419-19.929 3.963-36.91 15.292-48.019 31.714 48.362 21.797 84.469 57.384 112.55 101.326z"/><path d="m44.4 134.536c28.845-44.509 63.776-79.307 112.56-101.316-11.121-16.432-28.1-27.771-48.04-31.734-43.575-8.683-84.931 21.709-90.291 65.419-2.679 22.017 4.331 44.053 19.25 60.456z"/><path d="m276.49 407.562c-12.758-8.182-29.027-7.877-41.33.3-.66.429-1.021 1.271-.82 1.911 1.45 4.734 4.94 9.968 10.08 15.131 3.09 3.092 7.21 4.794 11.63 4.794 4.328 0 8.507-1.658 11.62-4.794 4.98-4.994 8.42-10.078 9.94-14.681.37-1.1-.3-2.131-1.12-2.661z"/><path d="m366.84 236.803c-9.675-15.807-30.132-21.517-46.58-13-16.449 8.516-23.61 28.521-16.31 45.554l22 51.279c8.157 19.026 30.629 27.016 48.92 17.543 7.644-3.965 20.325-8.948 25-25.699 2.68-9.607 1.29-19.575-3.92-28.081zm-21.55 35.416c-7.36 3.813-16.41.931-20.21-6.435-3.811-7.366-.93-16.422 6.43-20.225 7.35-3.813 16.4-.931 20.21 6.435s.93 16.423-6.43 20.225z"/><path d="m490.889 270.788c-15.829-68.241-43.95-123.643-83.569-164.644-82.883-85.867-220.407-85.197-302.631-.01-43.612 45.088-69.512 104.01-83.579 164.654-16.04 69.082-7.95 124.874 24.05 165.805 36.269 46.395 102.11 71.734 195.839 75.407v-54.761c-17.047-5.807-30.777-23.769-35.339-38.669-4.08-13.29 1.24-27.991 12.929-35.737 22.631-15.01 51.739-14.895 74.111-.53 12.5 8.036 18.009 23.398 13.389 37.348-4.628 14.021-17.902 31.799-35.09 37.618v54.731c93.731-3.673 159.571-29.012 195.84-75.407 32-40.931 40.09-96.723 24.05-165.805zm-255.269 10.418-22 51.279c-10.102 23.538-33.467 39.67-60.151 39.67-17.771 0-28.771-6.611-37.239-10.998-33.748-17.473-45.602-60.007-25.771-92.44l29.111-47.586c17.849-29.172 55.599-39.71 85.96-23.998 30.35 15.712 43.569 52.64 30.09 84.073zm160.16 79.95c-7.606 3.934-29.74 17.755-59.3 7.175-17.061-6.115-30.95-19.184-38.101-35.847l-22-51.279c-13.479-31.434-.259-68.362 30.09-84.073 30.361-15.712 68.111-5.174 85.96 23.998l29.111 47.586c19.87 32.5 7.906 74.998-25.76 92.44z"/><path d="m191.74 223.803c-16.448-8.517-36.905-2.807-46.58 13l-29.11 47.596c-10.805 17.64-4.325 40.618 13.96 50.088 7.577 3.93 18.993 11.459 35.4 5.584 9.38-3.363 16.71-10.268 20.64-19.435l22-51.279c7.3-17.033.14-37.038-16.31-45.554zm-4.82 41.981c-3.8 7.366-12.85 10.248-20.21 6.435-7.36-3.803-10.24-12.86-6.43-20.225 3.81-7.366 12.86-10.248 20.21-6.435 7.36 3.803 10.241 12.86 6.43 20.225z"/></g></svg>