<svg id="Capa_1" enable-background="new 0 0 512 512" height="512" viewBox="0 0 512 512" width="512" xmlns="http://www.w3.org/2000/svg"><g><g><path d="m446.353 184.763c-11.349-48.886-32.254-96.339-67.437-132.675-24.89-25.769-56.659-42.798-91.877-49.248-20.399-3.763-41.312-3.803-61.998-.02-.47.08-.92.16-1.39.27l-.09.01c-34.639 6.62-65.927 23.559-90.466 48.978-34.922 36.069-55.997 83.325-67.447 132.665-10.08 43.398-8.32 80.647 5.25 110.726 9.6 21.299 24.929 38.789 45.758 52.268l13.319-63.398c3.949-18.942 12.91-36.316 24.889-49.988l43.428-49.868c30.545-35.106 85.009-34.95 115.395-.02l43.448 49.888c12.188 13.911 20.968 31.286 24.889 49.958l13.319 63.417c20.829-13.469 36.159-30.959 45.758-52.258 13.571-30.078 15.331-67.327 5.252-110.705zm-285.679-9.64c-8.29 0-14.999-6.72-14.999-14.999 0-8.28 6.71-14.999 14.999-14.999 8.28 0 14.999 6.72 14.999 14.999s-6.72 14.999-14.999 14.999zm190.652 0c-8.28 0-14.999-6.72-14.999-14.999 0-8.28 6.72-14.999 14.999-14.999 8.29 0 14.999 6.72 14.999 14.999.001 8.279-6.709 14.999-14.999 14.999z"/></g><g><path d="m170.733 263c4.152-6.394 3.195-4.853 50.198-58.828 18.511-21.299 51.631-21.294 70.137 0 47.242 54.248 46.099 52.515 50.198 58.828-52.724 21.563-114.838 22.777-170.533 0z"/><path d="m376.595 404.434-23.879-113.736c-60.988 24.783-130.394 25.616-193.432 0l-23.879 113.736c-4.751 22.577-.321 47.035 14.519 67.317 10.84 14.809 25.859 25.479 43.438 30.869 39.588 12.13 83.25 12.877 125.275 0 17.579-5.39 32.599-16.059 43.438-30.869 14.834-20.272 19.273-44.732 14.52-67.317zm-166.633 32.599c-8.29 0-14.999-6.72-14.999-14.999 0-8.28 6.71-14.999 14.999-14.999 8.28 0 14.999 6.72 14.999 14.999s-6.72 14.999-14.999 14.999zm92.076 0c-8.28 0-14.999-6.72-14.999-14.999 0-8.28 6.72-14.999 14.999-14.999 8.29 0 14.999 6.72 14.999 14.999.001 8.279-6.709 14.999-14.999 14.999z"/></g></g></svg>