<svg id="Capa_1" enable-background="new 0 0 512 512" height="512" viewBox="0 0 512 512" width="512" xmlns="http://www.w3.org/2000/svg"><g><path d="m268.359 151.338c47.971 3.339 92.828 24.921 127.274 66.467 4.72-20.859 8.69-42.348 9.96-56.847 3.44-39.138.77-76.666-7.53-105.695-9.63-33.698-26.469-53.267-47.418-55.107-32.138-2.82-50.057 33.398-55.947 45.298-14.83 29.908-23.889 66.436-26.339 105.884"/><path d="m106.407 160.957c1.27 14.499 5.24 35.988 9.96 56.847 34.126-41.181 78.982-63.161 127.274-66.467-2.44-39.428-11.509-75.966-26.339-105.885-5.89-11.899-23.809-48.098-55.947-45.298-20.949 1.84-37.788 21.409-47.418 55.107-8.3 29.03-10.97 66.558-7.53 105.696"/><path d="m255.93 345.498c5.46 0 10.749 1.52 15.349 4.4-1.23 3.32-3.8 6.99-7.47 10.679-2.09 2.09-4.89 3.24-7.88 3.24-2.825 0-5.653-1.035-7.88-3.24-3.67-3.68-6.24-7.36-7.47-10.679 4.602-2.88 9.891-4.4 15.351-4.4m0 0c5.46 0 10.749 1.52 15.349 4.4-1.23 3.32-3.8 6.99-7.47 10.679-2.09 2.09-4.89 3.24-7.88 3.24-2.825 0-5.653-1.035-7.88-3.24-3.67-3.68-6.24-7.36-7.47-10.679 4.602-2.88 9.891-4.4 15.351-4.4m-165.252-4.499c8.76-37.738 23.059-70.056 42.488-96.065 24.135-32.277 55.329-54.14 95.835-61.567 19.624-3.596 40.157-2.991 55.187.23l.04.01c39.049 7.463 70.149 28.613 94.575 61.297 21.014 28.019 34.537 61.712 42.518 96.095 11.319 48.698 5.48 88.186-17.329 117.354-27.029 34.538-76.746 52.587-147.773 53.637-.069.01-.149.01-.219.01s-.15 0-.22-.01c-71.026-1.05-120.744-19.099-147.773-53.637-22.808-29.169-28.648-68.657-17.329-117.354m253.358-31.809c0-8.29-6.71-14.999-14.999-14.999-8.28 0-14.999 6.71-14.999 14.999 0 8.28 6.72 14.999 14.999 14.999 8.289 0 14.999-6.719 14.999-14.999m-153.863 114.894c6.02 16.699 21.989 27.919 39.738 27.919 9.56 0 18.609-3.26 25.859-8.88 7.25 5.62 16.289 8.88 25.859 8.88 17.749 0 33.718-11.219 39.738-27.919 2.81-7.79-1.23-16.379-9.03-19.189-7.79-2.81-16.389 1.23-19.189 9.02-1.75 4.84-6.38 8.09-11.519 8.09-4.43 0-8.48-2.42-10.629-6.18v-24.849c14.085-5.515 25.416-20.649 29.249-33.138 3.71-12.109-1.13-25.499-11.769-32.548-19.723-13.053-44.995-12.905-64.397-.46-11.359 7.3-16.369 21.269-12.169 33.958 3.916 11.836 14.891 26.742 29.089 32.248v23.899c-1.99 4.27-6.32 7.07-11.089 7.07-5.15 0-9.77-3.25-11.519-8.09-2.81-7.79-11.399-11.829-19.199-9.02-7.793 2.81-11.833 11.4-9.023 19.189m-7.209-99.895c8.28 0 14.999-6.72 14.999-14.999 0-8.29-6.72-14.999-14.999-14.999-8.29 0-14.999 6.71-14.999 14.999-.001 8.28 6.709 14.999 14.999 14.999m72.966 21.309c5.46 0 10.749 1.52 15.349 4.4-1.23 3.32-3.8 6.99-7.47 10.679-2.09 2.09-4.89 3.24-7.88 3.24-2.825 0-5.653-1.035-7.88-3.24-3.67-3.68-6.24-7.36-7.47-10.679 4.602-2.88 9.891-4.4 15.351-4.4"/></g></svg>