<svg id="Capa_1" enable-background="new 0 0 512 512" height="512" viewBox="0 0 512 512" width="512" xmlns="http://www.w3.org/2000/svg"><g><g id="XMLID_1_"><path d="m484.32 74.08c8.28 0 15 6.71 15 15 0 48.11-33.62 105.09-49.41 124.47-3.39 4.16-12.3 14.45-28.39 24.58-30.47 19.18-65.37 32.77-104.03 32.77h-107.6c-36.34 0-63.68 33.36-56.22 69.18l.01.01c24.12-7.83 51.47-5.27 74.62 9.51 15.57 9.93 27.44 24.22 34.32 41.31 4.55 11.27-5.56 23.03-17.42 20.19-19.88-4.78-40.63 3.6-51.63 20.85-11.01 17.26-9.87 39.61 2.85 55.62 3.5 4.4 4.24 10.38 1.93 15.5-4.21 9.33-13.42 8.93-17.52 8.93-16.77 0-33.03-4.74-47.29-13.83-34.68-22.12-49.74-66.12-35.16-105.1 0 0 0 0-.01 0-51.1-29.28-85.69-84.82-85.69-148.15 0-45.64 17.77-88.54 50.04-120.81 32.27-32.26 75.17-50.03 120.81-50.03zm-69.88 75c0-8.29-6.72-15-15-15-8.29 0-15 6.71-15 15 0 8.28 6.71 15 15 15 8.28 0 15-6.72 15-15zm-162.38 8.62c5.85-5.86 5.85-15.35 0-21.21-5.86-5.86-15.36-5.86-21.22 0l-4.5 4.5c-17.68 17.68-17.68 46.45.01 64.13l3.46 3.47c5.86 5.86 15.37 5.85 21.22 0 5.86-5.86 5.86-15.36 0-21.22l-3.47-3.46c-5.99-5.99-5.99-15.73 0-21.71zm-60 0c5.85-5.86 5.85-15.35 0-21.21-5.86-5.86-15.36-5.86-21.22 0l-4.5 4.5c-17.68 17.68-17.68 46.45.01 64.13l3.46 3.47c2.93 2.93 6.77 4.39 10.61 4.39 13.27 0 20.08-16.14 10.61-25.61l-3.47-3.46c-5.99-5.99-5.99-15.73 0-21.71z"/><path d="m349.91 44.08v.01h-95.44c3.29-14.41 1.19-26.06 1.16-26.27-1.95-10.24 6.91-19.35 17.22-17.6 1.03.17 9.91 1.75 22.18 6.44 15.85 6.05 37.35 17.3 54.88 37.42z"/><path d="m350.97 298.25c-18.13 30.9-51.71 45.34-70.45 48.42-10.53 1.84-19.28-7.46-17.23-17.55.21-1.27 2.25-14.76-4.28-28.22 62.5 0 71.15.69 91.96-2.65z"/></g></g></svg>