<svg id="Capa_1" enable-background="new 0 0 512 512" height="512" viewBox="0 0 512 512" width="512" xmlns="http://www.w3.org/2000/svg"><g><g><g><g><path d="m50.185 112.95c12.35-19.43 27.51-37.19 45.13-52.63 44.37-38.9 101.35-60.32 160.42-60.32 65.04 0 126.18 25.33 172.17 71.31 12.8 12.8 24.01 26.77 33.5 41.69-60.39-25.09-110.59-15.58-144.58-.95-28.3 12.18-49.12 29.31-61.09 40.87-11.97-11.56-32.79-28.69-61.09-40.87-33.97-14.62-84.12-24.12-144.46.9z"/></g><g><path d="m175.885 231.9c-6.94-21.05-28.51-33.36-50.17-28.64l-112.92 24.04c-.36 5.39-.54 10.79-.54 16.18 0 30.166-1.811 64.004 15.02 109.42l127.76-69.33c.04-.02.08-.05.12-.07 18.684-9.917 27.302-31.75 20.73-51.6zm-39.36 30.43c-8.28 0-15-6.72-15-15 0-8.29 6.72-15 15-15s15 6.71 15 15c0 8.28-6.72 15-15 15z"/><path d="m274.505 331.42c-5.56-3.61-12.03-5.52-18.69-5.52-6.85 0-13.46 2.01-19.12 5.8-.22.15-.28.32-.2.56 1.3 4.27 4.48 9.01 9.17 13.71 5.576 5.597 14.734 5.577 20.3.01 3.638-3.654 7.421-8.41 9.05-13.32.14-.43-.08-.96-.51-1.24zm32.58-108.91c11.78-35.69 48.34-56.56 85.05-48.56l102.38 21.79c-2.503-12.704-5.998-25.123-10.48-37.18-53.22-33.63-105.08-40.16-154.27-19.42-39.02 16.46-62.09 44.76-62.32 45.05-.02.02-.04.04-.07.07-6.052 7.497-17.443 7.321-23.38-.1-.2-.26-23.27-28.56-62.29-45.02-49.16-20.73-100.99-14.21-154.18 19.36-4.368 11.686-8.026 24.391-10.56 37.24l102.44-21.81c36.64-7.99 73.2 12.89 84.98 48.57 11.111 33.832-3.564 70.687-35.1 87.47l-129.83 70.46c41.63 80.41 124.94 131.57 216.28 131.57s174.64-51.17 216.27-131.58l-129.82-70.45c-31.669-16.854-46.168-53.802-35.1-87.46zm11.67 200.83c-16.85 16.83-39.23 26.09-63.02 26.09s-46.17-9.26-63.02-26.09c-5.87-5.86-5.87-15.36-.02-21.22 5.86-5.86 15.36-5.87 21.22-.01 7.55 7.54 16.77 12.79 26.82 15.41v-39.97c-16.275-5.845-28.811-23.082-32.93-36.49-3.97-12.96.93-26.73 12.18-34.27 21.397-14.359 49.31-14.508 70.85-.54 11.88 7.71 17.09 22.45 12.66 35.84-4.438 13.377-16.952 29.898-32.76 35.52v39.91c10.05-2.62 19.27-7.87 26.82-15.41 5.86-5.86 15.36-5.85 21.22.01 5.85 5.86 5.85 15.36-.02 21.22zm-43.74-90.68c.14-.43-.08-.96-.51-1.24-5.56-3.61-12.03-5.52-18.69-5.52-6.85 0-13.46 2.01-19.12 5.8-.22.15-.28.32-.2.56 1.3 4.27 4.48 9.01 9.17 13.71 5.576 5.597 14.734 5.577 20.3.01 3.638-3.654 7.422-8.41 9.05-13.32z"/><path d="m498.675 227.3-112.85-24.03c-21.883-4.754-43.341 7.704-50.25 28.63-6.517 19.821 1.991 41.648 20.74 51.6.04.02.08.05.12.07l127.74 69.32c15.087-39.532 17.505-82.82 14.5-125.59zm-123.73 35.03c-8.28 0-15-6.72-15-15 0-8.29 6.72-15 15-15s15 6.71 15 15c0 8.28-6.72 15-15 15z"/></g></g></g></g></svg>