<svg id="Capa_1" enable-background="new 0 0 512 512" height="512" viewBox="0 0 512 512" width="512" xmlns="http://www.w3.org/2000/svg"><g><path d="m358.04 365.051c-4.72 9.09-10.61 17.46-17.48 24.93l8.69 8.61v53.38l-27.38 35.94c-5.02 6.59-3.74 16 2.85 21.02 6.571 5.019 15.995 3.753 21.02-2.84l30.44-39.97c1.99-2.62 3.07-5.81 3.07-9.09v-64.7c0-4-1.6-7.83-4.44-10.65z"/><path d="m389.049 302.521c-5.278-6.148-11.396-5.23-19.12-5.23 1.279 9.853 1.288 20.121-.02 30h.88l52.78 61.45v63c0 8.29 6.72 15 15 15s15-6.71 15-15v-68.56c0-3.58-1.29-7.05-3.62-9.77z"/><path d="m493.379 280.251c-.18-5.45-3.29-10.37-8.14-12.86l-74.59-38.32c-6.142-3.151-11.063-1.058-14.94.12-4.39 13.06-10.42 25.44-17.92 36.8l24.55-7.46 61.34 31.51 1.25 38.75c.26 8.12 6.92 14.52 14.98 14.52.16 0 .33 0 .49-.01 8.28-.26 14.78-7.19 14.51-15.47z"/><path d="m429.539 64.402v80.72l-26.78 10.01c1.412 10.592 1.777 21.077 1.16 31.6l45.87-17.15c5.86-2.19 9.75-7.79 9.75-14.05v-95.32c0-2.75-.76-5.44-2.18-7.78l-27.42-45.21c-4.3-7.08-13.52-9.34-20.61-5.05-7.08 4.3-9.34 13.53-5.04 20.61z"/><path d="m162.75 451.97v-53.38l8.69-8.61c-6.87-7.47-12.76-15.84-17.48-24.93l-16.77 16.63c-2.84 2.82-4.44 6.65-4.44 10.65v64.7c0 3.28 1.08 6.47 3.07 9.09l30.44 39.97c5.026 6.593 14.45 7.859 21.02 2.84 6.59-5.02 7.87-14.43 2.85-21.02z"/><path d="m142.091 327.291c-1.304-9.851-1.303-20.12-.02-30-7.738 0-13.846-.914-19.12 5.23l-60.9 70.89c-2.33 2.72-3.62 6.19-3.62 9.77v68.56c0 8.29 6.72 15 15 15s15-6.71 15-15v-63l52.78-61.45z"/><path d="m134.201 265.991c-7.49-11.37-13.52-23.74-17.91-36.8-3.925-1.192-8.812-3.264-14.94-.12l-74.59 38.32c-4.85 2.49-7.96 7.41-8.14 12.86l-1.53 47.58c-.27 8.28 6.23 15.21 14.51 15.47.16.01.33.01.49.01 8.06 0 14.72-6.4 14.98-14.52l1.25-38.75 61.34-31.51z"/><path d="m62.211 169.582 45.87 17.15c-.606-10.338-.276-20.843 1.16-31.6l-26.78-10.01v-80.72l25.25-41.62c4.3-7.08 2.04-16.31-5.04-20.61-7.09-4.29-16.31-2.03-20.61 5.05l-27.42 45.21c-1.42 2.34-2.18 5.03-2.18 7.78v95.32c0 6.26 3.89 11.86 9.75 14.05z"/><path d="m340.89 312.291c0-46.328-37.318-84.88-84.89-84.88-47.534 0-84.89 38.516-84.89 84.88 0 30.288 15.955 56.905 39.89 71.932v32.867c0 8.284 6.716 15 15 15s15-6.716 15-15v-21.264c10.067 1.803 19.916 1.806 30 0v21.264c0 8.284 6.716 15 15 15s15-6.716 15-15v-32.867c23.935-15.027 39.89-41.644 39.89-71.932z"/><path d="m341.08 89.512c-18.245-20.177-42.714-33.895-70.08-37.606v-36.904c0-8.28-6.72-15-15-15s-15 6.72-15 15v36.904c-27.36 3.711-51.835 17.43-70.07 37.615 49.945 63.851 120.113 63.954 170.15-.009z"/><path d="m256 197.411c40.478 0 75.818 20.567 96.47 52.47 26.35-39.573 29.061-92.339 6.46-134.869-10.48 12.21-21.91 22.47-34.18 30.66-43.464 29.023-93.993 29.051-137.499 0-12.27-8.19-23.7-18.45-34.18-30.65-22.58 42.467-19.916 95.248 6.46 134.859 20.648-31.898 55.986-52.47 96.469-52.47z"/></g></svg>