<svg id="Capa_1" enable-background="new 0 0 512 512" height="512" viewBox="0 0 512 512" width="512" xmlns="http://www.w3.org/2000/svg"><g><path d="m337.068 350.79-.009.04c-.031.2-.051.38-.08.55-.781 5.29-2.071 10.45-3.85 15.42.29.02.57.02.86.02 19.608 0 37.915-11.78 45.594-30.74l16.498-40.7c-7.379 1.74-14.277 3.89-20.677 6.47-20.252 8.126-35.062 26.718-38.336 48.94z"/><path d="m178.001 366.81c.279 0 .55 0 .83-.02-1.82-5.09-3.131-10.38-3.909-15.79-3.16-22.1-17.858-40.94-38.344-49.17-6.399-2.56-13.299-4.72-20.677-6.46l16.507 40.71c7.689 18.96 25.986 30.73 45.593 30.73z"/><path d="m509.902 240.73c-7.588-12.91-17.107-24.55-26.325-35.81-.1-.13-.21-.25-.32-.38-26.329-30.099-61.268-64.478-123.202-86.82-4.838-36.336-28.093-66.18-59.061-80.885v-21.835c0-8.284-6.715-15-14.998-15s-14.998 6.716-14.998 15v12.819c-10.128-1.442-20.222-1.407-30.059.003v-12.822c0-8.284-6.715-15-14.998-15s-14.998 6.716-14.998 15v21.874c-30.698 14.606-54.12 44.274-58.989 80.845-62.025 22.37-97.005 56.862-123.211 86.82-.11.13-.22.25-.32.38-9.189 11.23-18.687 22.84-26.266 35.71-6.431 10.752 2.396 24.222 14.958 22.56 29.036-3.92 84.538-7.7 130.631 10.8 30.406 12.21 52.192 40.09 56.872 72.76 2.794 19.497 16.554 36.342 36.385 42.32v70.841c0 12.18-9.909 22.09-22.087 22.09s-22.087-9.91-22.087-22.09v-19.24c0-28.72-23.367-52.09-52.083-52.09h-28.806c-8.289 0-14.998 6.72-14.998 15 0 8.29 6.709 15 14.998 15h28.806c12.178 0 22.087 9.91 22.087 22.09v19.24c0 28.72 23.366 52.09 52.082 52.09 28.75 0 52.083-23.425 52.083-52.09v-70.855c19.583-5.923 33.434-22.543 36.315-42.105.01-.09.03-.18.04-.27 4.7-32.63 26.486-60.47 56.872-72.67 46.083-18.51 101.595-14.74 130.651-10.83 12.342 1.744 21.402-11.607 15.026-22.45zm-283.898-113.89c-8.279 0-14.998-6.71-14.998-15 0-8.28 6.719-15 14.998-15s14.998 6.72 14.998 15c0 8.29-6.719 15-14.998 15zm59.992 0c-8.279 0-14.998-6.71-14.998-15 0-8.28 6.719-15 14.998-15s14.998 6.72 14.998 15c-.001 8.29-6.72 15-14.998 15z"/></g></svg>