<svg id="Capa_1" enable-background="new 0 0 512 512" height="512" viewBox="0 0 512 512" width="512" xmlns="http://www.w3.org/2000/svg"><g><path d="m173.43 438.04c-23.857-20.854-44.034-46.676-58.16-72.89-24.56 32.25-28.6 77.18-7.14 114.36 4.147 7.174 13.312 9.627 20.49 5.49 55.598-32.095 54.28-31.141 59.64-35-5.229-3.88-10.037-7.786-14.83-11.96"/><path d="m376.32 397.05c-15.37 20.68-33.59 38.83-52.59 52.95 6.531 4.679 60.652 35.577 59.65 35 7.176 4.135 16.342 1.687 20.49-5.49 21.46-37.18 17.42-82.1-7.13-114.35-6.62 12.13-13.641 22.78-20.42 31.89"/><path d="m464.231 82.16-59.891-9.52c-23.04-3.67-46.03 3.93-62.25 19.78 36.305 17.677 61.473 45.784 73.58 75.81 6.34-6.23 14.991-9.84 23.981-9.84h18.569c21.125 0 38.351-17.104 38.351-38.36 0-18.97-13.601-34.9-32.34-37.87"/><path d="m47.77 82.16 59.891-9.52c23.04-3.67 46.03 3.93 62.25 19.78-36.305 17.677-61.473 45.784-73.58 75.81-6.34-6.23-14.991-9.84-23.981-9.84h-18.569c-21.125 0-38.351-17.104-38.351-38.36 0-18.97 13.601-34.9 32.34-37.87"/><path d="m256 72.07c15.725 0 39.814 3.336 61.77 10.57v-20.87c0-34.192-27.676-61.77-61.77-61.77-34.06 0-61.77 27.71-61.77 61.77v20.87c21.693-7.106 45.584-10.57 61.77-10.57"/><path d="m157.31 135.69c-.21.17-.43.34-.64.52-24.593 20.195-39.832 48.918-42.57 86.24-.96 13.26-.81 26.47.42 39.5l70.26-9.79 22.69-39.29z"/><path d="m158.75 377.79c3.91 5.35 8.02 10.51 12.31 15.44l36.96-73.16-21.85-37.82-66.89 9.33c7.223 31.874 20.947 60.961 39.47 86.21"/><path d="m233.72 227.4-22.29 38.6 22.29 38.6h44.561l22.29-38.6-22.29-38.6z"/><path d="m277.71 334.6h-43.42l-40.93 81.01c13.556 11.929 30.693 23.591 47.657 30.199-.002.114-.017.226-.017.341v50.85c0 8.28 6.72 15 15 15s15-6.72 15-15v-50.85c0-.115-.015-.226-.018-.341 15.491-6.021 32.026-16.583 47.638-30.229z"/><path d="m278.79 197.4 50.43-77.87c-7.84-3.83-16.27-7.1-25.27-9.78-32.932-9.792-61.269-10.292-95.91 0-9.05 2.69-17.53 5.99-25.41 9.87l50.56 77.78z"/><path d="m303.99 320.08 36.939 73.12c3.931-4.52 7.721-9.21 11.321-14.05 15.309-20.6 32.059-50.01 40.599-87.55l-67.019-9.35z"/><path d="m397.901 222.45c-2.563-34.93-16.247-64.901-43.33-86.88l-50.051 77.29 22.7 39.3 70.34 9.81c1.16-12.46 1.361-25.64.341-39.52"/></g></svg>