<svg id="Capa_1" enable-background="new 0 0 512 512" height="512" viewBox="0 0 512 512" width="512" xmlns="http://www.w3.org/2000/svg"><g><g id="XMLID_1_"><path d="m439.4 241.96c15.66 20 23.94 44.03 23.94 69.49 0 30.12-11.74 58.45-33.04 79.76-34.36 34.34-91.93 46.04-134.78 15.63-7.15-5.07-15.63-8.65-24.74-10.52v-148.48c8.73-2.49 16.73-7.15 23.31-13.75 8.57-8.61 15.97-18.7 20.02-30.15h36.42c39.74 0 73.62 18.88 88.87 38.02z"/><path d="m437.01 181.9c1.6 7.17 2.89 14.18 3.86 21.01-25.26-18.62-56.98-28.97-90.34-28.97h-38.63c-9.59-17.58-35.98-26.17-56.06-26.17-19.93 0-46.68 8.67-56.23 26.17h-38.14c-33.43 0-65.31 10.36-90.83 29.34.97-6.95 2.28-14.09 3.91-21.38 3.73-16.65 8.4-32.49 13.88-47.08.03-.11.07-.21.11-.31 18.68-49.66 51-96.42 99.12-119.26 41.06-19.52 91.7-21.13 136.24 0 47.92 22.75 80.29 69.19 99.18 119.41 5.49 14.62 10.17 30.51 13.93 47.24zm-71.78-45.85c0-8.28-6.72-15-15-15-8.29 0-15 6.72-15 15s6.71 15 15 15c8.28 0 15-6.72 15-15zm-188.78 0c0-8.28-6.72-15-15-15-8.29 0-15 6.72-15 15s6.71 15 15 15c8.28 0 15-6.72 15-15z"/><path d="m417 437.9c-22.85 55.39-60.41 72.04-62.42 72.89-9.92 4.22-20.87-3.11-20.87-13.8v-43.73c25.54 3.34 56.23-1.08 83.29-15.36z"/><path d="m278.17 431.31c7.91 5.62 16.44 10.3 25.31 13.93-31.19 8.63-63.91 8.67-95.13.07 8.94-3.64 17.52-8.35 25.5-14 12.03-8.58 32.13-8.66 44.32 0z"/><path d="m283.18 185.77c2.65 1.7 3.81 4.71 2.89 7.49-1.16 3.49-3.02 7.06-5.59 10.68-6.51 9.21-13.55 15.99-24.64 15.99s-18.22-6.84-24.65-15.99c-2.72-3.84-4.65-7.62-5.78-11.31-.71-2.32.33-5.04 2.48-6.46 16.7-11.08 38.47-11.2 55.29-.4z"/><path d="m240.78 247.81v148.61c-8.94 1.89-17.27 5.43-24.29 10.42-41.47 29.41-97.13 19.31-131.57-12.56-23.04-21.27-36.26-51.47-36.26-82.83 0-25.46 8.28-49.49 23.94-69.49 14.67-18.5 48.35-38.02 88.87-38.02h36.08c3.69 10.38 10.42 20.51 20.04 30.15 6.55 6.57 14.5 11.22 23.19 13.72z"/><path d="m177.85 453.32v43.67c0 10.7-10.96 18.01-20.87 13.8-2.02-.86-39.73-17.57-62.56-73.24 26.99 14.38 57.5 19.06 83.43 15.77z"/></g></g></svg>