<svg id="Capa_1" enable-background="new 0 0 512 512" height="512" viewBox="0 0 512 512" width="512" xmlns="http://www.w3.org/2000/svg"><g><path d="m312.42 427.599c5.14 6.38 11.44 11.85 18.66 16.07 56.857 33.212 58.782 36.05 71.28 36.05 25.156 0 44.266-27.648 31.2-52.12z"/><path d="m386.36 303.509c10.37 9.09 23.67 14.09 37.45 14.09h88.19v-77.08c0-32.79-26.68-59.48-59.48-59.48h-248.93c-18.74 0-38.63-10.24-52.94-25.88-27.481 13.172-58.627 15.787-87.31 8.04v42.78c0 55.7 24.18 108.55 66.35 145 .02.01.03.03.05.05 10.646-25.732 24.098-34.599 61.03-67.43 24.778-22.037 61.028-24.418 88.69-3.61 27.164 20.482 35.612 55.821 21.05 86.24l-15.03 31.37h167.04c29.58 0 54.18-21.69 58.72-50h-87.43c-21.06 0-41.38-7.64-57.23-21.52-6.23-5.46-6.85-14.94-1.39-21.17s14.94-6.86 21.17-1.4zm-29.09-48.46c0-8.28 6.72-15 15-15s15 6.72 15 15c0 8.29-6.72 15-15 15s-15-6.71-15-15z"/><path d="m126.82 132.509c39.185-13.172 65.46-49.899 65.46-91.13 0-8.28-6.72-15-15-15h-162.28c-8.28 0-15 6.72-15 15 0 40.25 25.4 76.56 63.21 90.36 19.953 7.269 42.629 7.877 63.61.77z"/><path d="m272.55 86.379c8.28 0 15-6.71 15-15 0-8.326 6.773-15 15-15 8.27 0 15 6.73 15 15v64.378c0 8.29 6.72 15 15 15s15-6.71 15-15v-64.378c0-8.27 6.73-15 15-15 8.186 0 15 6.634 15 15 0 8.29 6.72 15 15 15s15-6.71 15-15c0-12.03-4.69-23.33-13.18-31.81-8.5-8.5-19.8-13.19-31.82-13.19-11.52 0-22.03 4.35-30 11.5-7.97-7.15-18.48-11.5-30-11.5-12.02 0-23.32 4.69-31.81 13.18-8.5 8.49-13.19 19.79-13.19 31.82 0 8.29 6.72 15 15 15z"/><path d="m261.41 303.959c-15.67-11.8-36.05-10.97-50.71 2.06l-35.58 31.63c-14.51 12.9-22.84 31.44-22.84 50.87v61.58c0 16.94 11.1 30.83 27.61 34.59 16.265 3.7 32.422-3.788 39.84-19.27l53.72-112.15c8.47-17.69 3.63-37.51-12.04-49.31z"/></g></svg>