<svg id="Capa_1" enable-background="new 0 0 512 512" height="512" viewBox="0 0 512 512" width="512" xmlns="http://www.w3.org/2000/svg"><g><path d="m140.267 31.586c-17.161-14.84-35.191-22.581-49.601-26.621-25.051-7.01-44.931-4.58-45.761-4.47-6.73.86-12.05 6.13-12.96 12.86-5.5 40.471-1.63 76.112 11.49 105.923 3.64 8.28 7.97 16.05 12.95 23.301 12.817-49.536 43.048-87.621 83.882-110.993z"/><path d="m480.056 13.356c-.91-6.73-6.23-12-12.96-12.86-.83-.11-20.711-2.54-45.761 4.47-14.41 4.04-32.441 11.78-49.591 26.621 41.746 24.126 71.226 62.157 83.872 110.983 4.99-7.25 9.31-15.01 12.95-23.291 13.121-29.811 16.991-65.452 11.49-105.923z"/><path d="m320.682 385.106c-38.081-28.531-91.283-28.531-129.364 0l-50.371 38.091c4.44 15.97 12.64 35.891 27.751 52.792 22.617 25.286 52.946 36.011 87.302 36.011 36.561 0 65.932-12.12 87.303-36.011 15.46-17.281 23.691-37.731 28.041-53.892l-50.511-36.881c-.051-.03-.101-.07-.151-.11zm-78.802 66.132c-.75 8.24-8.05 14.32-16.3 13.57-8.24-.75-14.33-8.05-13.57-16.301.45-4.94-3.2-9.32-8.14-9.77-8.24-.75-14.32-8.06-13.57-16.301.75-8.25 8.05-14.33 16.301-13.58 21.408 1.961 37.239 20.972 35.279 42.382zm66.252-12.5c-4.94.45-8.59 4.83-8.14 9.77.76 8.25-5.33 15.551-13.57 16.301-8.25.75-15.551-5.33-16.301-13.57-1.96-21.411 13.87-40.421 35.281-42.381 8.25-.75 15.55 5.33 16.3 13.58.75 8.24-5.33 15.55-13.57 16.3z"/><path d="m240 127.729c2.04 1.27 3.74 3.02 4.97 5.09l10.99 18.561.04.07.23-.39 10.8-18.241c1.23-2.07 2.93-3.82 4.97-5.09l31.781-19.811 6.37-69.942c-9.93-2.83-23.391-5.83-39.151-7.22v57.272c0 8.29-6.72 15-15 15h-.04c-8.26-.02-14.96-6.72-14.96-15v-57.272c-15.76 1.39-29.221 4.39-39.151 7.22l6.37 69.942z"/><path d="m325.162 168.67c1.97-.09 63.082 4.91 107.223 19.181-4.017-68.222-38.289-115.012-93.083-139.154l-6.32 69.362c-.43 4.68-3.02 8.88-7 11.37l-35.001 21.821c-.179.302-22.498 37.901-22.761 38.341-2.827 4.594-14.706 11.97-24.631-.27-.151-.149-22.462-37.888-22.571-38.071l-35.001-21.821c-3.98-2.49-6.57-6.69-7-11.37l-6.31-69.352c-54.178 23.83-88.408 69.914-92.983 137.304-.04.6-.08 1.2-.11 1.81 44.131-14.25 105.173-19.241 107.143-19.151 8.27.37 14.67 7.36 14.32 15.631-.36 8.27-7.37 14.7-15.62 14.35-.47-.02-67.862 6.16-105.833 20.971 1.7 35.831 8.46 67.122 16.73 92.933.33 1.04.67 2.07 1.01 3.09 36.811-24.771 92.673-40.581 94.503-40.921 8.15-1.48 15.96 3.92 17.451 12.07 1.48 8.15-3.92 15.96-12.07 17.45-.4.07-58.462 17.071-88.853 40.381 11.291 26.101 19.249 35.716 23.531 47.781l41.351-31.271c20.041-15.02 43.201-24.131 67.722-26.761v-62.402c0-8.27 6.7-14.98 14.96-15h.041c8.28 0 15 6.72 15 15v62.392c24.491 2.64 47.601 11.72 67.592 26.681l41.811 30.521c.037-.074.034-.108.08-.2 6.803-16.473 11.587-20.107 23.101-46.701-30.371-23.331-88.513-40.351-88.913-40.421-8.15-1.49-13.55-9.3-12.07-17.45 1.49-8.15 9.3-13.55 17.45-12.07 1.83.34 57.752 16.17 94.563 40.961 8.74-26.401 15.99-58.762 17.771-96.033-37.951-14.83-105.453-21.021-105.923-21.001-8.25.35-15.26-6.08-15.62-14.35-.35-8.271 6.05-15.261 14.32-15.631zm-158.785 87.933c-8.29 0-15-6.71-15-15 0-8.28 6.71-15 15-15 8.28 0 15 6.72 15 15 .001 8.289-6.719 15-15 15zm179.246-30.001c8.29 0 15 6.72 15 15 0 8.29-6.71 15-15 15-8.28 0-15-6.71-15-15-.001-8.28 6.719-15 15-15z"/></g></svg>