<svg id="Capa_1" enable-background="new 0 0 512 512" height="512" viewBox="0 0 512 512" width="512" xmlns="http://www.w3.org/2000/svg"><g><g><path clip-rule="evenodd" d="m327.136 319.355 10.951-40.872 25.206-11.267 19.746 23.31-10.951 40.872-28.368 9.111z" fill="#ffd772" fill-rule="evenodd"/></g><g><path clip-rule="evenodd" d="m305.838 398.828 9.715-36.302 24.114-6.927 20.867 18.97-9.715 36.302c-3.248 12.043-5.547 14.572 2.012 30.956 4.081 8.853 5.231 19.114 2.501 29.289-6.179 23.052-29.892 36.733-52.971 30.553-23.051-6.18-36.732-29.864-30.553-52.944 2.702-10.146 8.824-18.51 16.785-24.115 14.745-10.405 14.026-13.739 17.245-25.782z" fill="#ffd772" fill-rule="evenodd"/></g><g><path clip-rule="evenodd" d="m372.088 331.398 10.951-40.872-24.201-6.467-10.95 40.843z" fill="#fbba58" fill-rule="evenodd"/></g><g><path clip-rule="evenodd" d="m350.819 410.871 9.715-36.302-24.201-6.496-9.743 36.302c-3.219 12.072-5.518 14.573 2.041 30.956 4.081 8.853 1.063 18.022-1.638 28.168-4.857 18.108-20.493 30.438-38.14 31.904 3.995 2.788 8.536 4.944 13.509 6.266 23.08 6.18 46.792-7.502 52.971-30.553 2.73-10.175 1.581-20.436-2.501-29.289-7.56-16.383-5.26-18.913-2.013-30.956z" fill="#fbba58" fill-rule="evenodd"/></g><g><path clip-rule="evenodd" d="m316.185 259.311 7.358-27.42 48.545-3.305 46.849 28.886-7.329 27.392c-1.839 6.841-8.939 10.922-15.751 9.111l-12.819-3.449-44.952-12.043-12.819-3.42c-6.811-1.84-10.921-8.911-9.082-15.752z" fill="#ea9a58" fill-rule="evenodd"/></g><g><path clip-rule="evenodd" d="m395.858 293.975c6.812 1.811 13.911-2.271 15.751-9.111l7.329-27.392-28.339-7.617-7.358 27.42c-1.811 6.841-8.91 10.922-15.751 9.083l15.549 4.168z" fill="#d88954" fill-rule="evenodd"/></g><g><path clip-rule="evenodd" d="m343.059 37.878c25.896-23.799 59.007-34.664 90.594-26.185 31.616 8.479 54.868 34.405 65.388 67.976h-76.223z" fill="#ffd772" fill-rule="evenodd"/></g><g><path clip-rule="evenodd" d="m297.59 174.463c-3.507-20.436-2.644-42.827 3.363-65.332.69-2.558 1.437-5.059 2.242-7.559 11.238-21.327 203.205 19.574 198.52 53.203-.546 2.558-1.178 5.087-1.839 7.646-6.036 22.505-16.498 42.338-29.777 58.261l-90.077-12.244z" fill="#ffd772" fill-rule="evenodd"/></g><g><path clip-rule="evenodd" d="m323.543 231.891c-13.135-15.291-22.131-35.21-25.954-57.428l172.509 46.218c-14.4 17.332-32.162 30.094-51.16 36.791z" fill="#eb5468" fill-rule="evenodd"/></g><g><path clip-rule="evenodd" d="m418.938 257.472c18.998-6.697 36.761-19.459 51.16-36.791l-28.339-7.588c-14.428 17.332-32.162 30.094-51.16 36.762z" fill="#e5384f" fill-rule="evenodd"/></g><g><path clip-rule="evenodd" d="m470.098 220.681c13.279-15.923 23.741-35.756 29.777-58.261.661-2.558 1.293-5.087 1.839-7.646-6.151-7.99-17.705-12.043-27.765-10.376-.201.949-.374 1.868-.575 2.788-.546 2.529-1.178 5.087-1.868 7.646-6.007 22.505-16.469 42.309-29.748 58.261z" fill="#fbba58" fill-rule="evenodd"/></g><g><path clip-rule="evenodd" d="m470.702 72.082 28.339 7.588c-10.52-33.571-33.772-59.497-65.388-67.976-4.8-1.293-9.657-2.127-14.486-2.558 24.546 11.497 42.596 34.491 51.535 62.946z" fill="#fbba58" fill-rule="evenodd"/></g><g><path clip-rule="evenodd" d="m303.194 101.572c8.249-25.782 22.419-47.684 39.865-63.694l155.982 41.792c4.081 12.992 6.237 27.104 6.266 41.763v.489c-.029 10.721-1.178 21.758-3.593 32.853-7.272-9.428-22.074-13.394-33.082-8.853s-25.839.575-33.082-8.881c-7.272-9.428-22.102-13.394-33.111-8.853-11.008 4.541-25.81.575-33.082-8.881-7.272-9.428-22.074-13.394-33.082-8.853-11.007 4.541-25.838.574-33.081-8.882z" fill="#7fdbae" fill-rule="evenodd"/></g><g><path clip-rule="evenodd" d="m501.714 154.775c2.414-11.095 3.564-22.132 3.593-32.853v-.489c-.029-14.659-2.184-28.771-6.266-41.763l-28.339-7.588c7.3 23.282 7.99 48.46 3.248 72.316 10.059-1.667 21.613 2.386 27.764 10.377z" fill="#3bc3a4" fill-rule="evenodd"/></g><g><path clip-rule="evenodd" d="m315.553 362.526 11.583-43.171 44.952 12.043-11.554 43.171z" fill="#eb5468" fill-rule="evenodd"/></g><g><path clip-rule="evenodd" d="m331.865 337.207h44.691v25.057h-44.691z" fill="#e5384f" fill-rule="evenodd" transform="matrix(.259 -.966 .966 .259 -75.211 601.484)"/></g><g><path clip-rule="evenodd" d="m168.941 37.878c-25.896-23.799-59.007-34.664-90.623-26.185-31.587 8.48-54.839 34.406-65.359 67.977l87.433-3.162z" fill="#ffd772" fill-rule="evenodd"/></g><g><path clip-rule="evenodd" d="m184.864 319.355-10.951-40.872-26.96-10.635-18.021 22.678 10.951 40.872 25.379 4.685z" fill="#ffd772" fill-rule="evenodd"/></g><g><path clip-rule="evenodd" d="m206.162 398.828-9.743-36.302-24.747-2.443-20.206 14.486 9.715 36.302c3.248 12.043 5.547 14.572-2.012 30.956-4.081 8.853-5.231 19.114-2.501 29.289 6.18 23.052 29.892 36.733 52.942 30.553 23.08-6.18 36.761-29.864 30.581-52.944-2.73-10.146-8.852-18.51-16.814-24.115-14.715-10.405-13.996-13.739-17.215-25.782z" fill="#ffd772" fill-rule="evenodd"/></g><g><path clip-rule="evenodd" d="m129.651 48.427 39.29-10.549c-25.896-23.799-59.007-34.664-90.623-26.185-6.726 1.811-13.078 4.398-18.998 7.674 25.091-.401 49.924 10.291 70.331 29.06z" fill="#fbba58" fill-rule="evenodd"/></g><g><path clip-rule="evenodd" d="m162.388 325.362 22.476-6.007-10.951-40.872-22.476 6.036z" fill="#fbba58" fill-rule="evenodd"/></g><g><path clip-rule="evenodd" d="m209.611 501.669c23.08-6.18 36.761-29.864 30.581-52.944-2.73-10.146-8.852-18.51-16.814-24.115-14.716-10.405-13.997-13.739-17.216-25.782l-9.743-36.302-22.476 6.007 9.715 36.302c3.248 12.043 2.501 15.406 17.245 25.782 7.961 5.634 14.084 13.969 16.814 24.144 5.116 19.171-3.449 38.774-19.746 48.403 3.851.029 7.76-.431 11.64-1.495z" fill="#fbba58" fill-rule="evenodd"/></g><g><path clip-rule="evenodd" d="m196.418 362.526-11.554-43.171-44.981 12.043 11.583 43.171z" fill="#eb5468" fill-rule="evenodd"/></g><g><path clip-rule="evenodd" d="m167.771 321.599h23.265v44.691h-23.265z" fill="#e5384f" fill-rule="evenodd" transform="matrix(.966 -.258 .258 .966 -82.725 57.987)"/></g><g><path clip-rule="evenodd" d="m195.815 259.311-7.358-27.42-51.16 3.392-44.234 22.189 7.329 27.392c1.839 6.841 8.91 10.922 15.751 9.111l12.79-3.449 44.981-12.043 12.79-3.42c6.84-1.84 10.95-8.911 9.111-15.752z" fill="#ea9a58" fill-rule="evenodd"/></g><g><path clip-rule="evenodd" d="m186.703 275.062c6.841-1.84 10.951-8.91 9.111-15.751l-7.358-27.42-39.29 10.52 7.329 27.42c1.839 6.812-2.213 13.854-8.967 15.722l3.909-1.035 22.476-6.036z" fill="#d88954" fill-rule="evenodd"/></g><g><path clip-rule="evenodd" d="m41.873 220.681 104.103-3.679 68.406-42.539c3.535-20.436 2.673-42.827-3.363-65.332-.661-2.558-1.408-5.059-2.213-7.559-46.418-18.625-146.181-23.684-198.52 53.203.546 2.558 1.15 5.087 1.839 7.646 6.036 22.505 16.498 42.337 29.748 58.26z" fill="#ffd772" fill-rule="evenodd"/></g><g><path clip-rule="evenodd" d="m175.092 185.012 39.29-10.549c3.535-20.436 2.673-42.827-3.363-65.332-.661-2.558-1.408-5.059-2.213-7.559-7.272 9.456-22.074 13.423-33.082 8.881-2.328-.949-4.8-1.552-7.358-1.782.402 1.15.776 2.299 1.15 3.449.776 2.472 1.523 5.001 2.213 7.531 6.036 22.506 6.869 44.896 3.363 65.361z" fill="#fbba58" fill-rule="evenodd"/></g><g><path clip-rule="evenodd" d="m208.806 101.572c-8.278-25.782-22.447-47.684-39.865-63.694l-155.982 41.792c-4.081 12.992-6.237 27.104-6.266 41.763v.489c0 10.721 1.178 21.758 3.593 32.853 7.243-9.428 22.074-13.394 33.082-8.853s25.81.575 33.082-8.881c7.272-9.428 22.074-13.394 33.082-8.853s25.839.575 33.111-8.881c7.243-9.428 22.074-13.394 33.082-8.853 11.007 4.541 25.809.574 33.081-8.882z" fill="#7fdbae" fill-rule="evenodd"/></g><g><path clip-rule="evenodd" d="m175.724 110.453c11.008 4.541 25.81.575 33.082-8.881-8.278-25.782-22.447-47.684-39.865-63.694l-39.29 10.549c16.642 15.291 30.323 35.957 38.715 60.245 2.558.229 5.03.833 7.358 1.781z" fill="#3bc3a4" fill-rule="evenodd"/></g><g><path clip-rule="evenodd" d="m188.457 231.891c13.135-15.291 22.102-35.21 25.925-57.428l-172.509 46.218c14.428 17.332 32.191 30.094 51.189 36.791z" fill="#eb5468" fill-rule="evenodd"/></g><g><path clip-rule="evenodd" d="m188.457 231.891c13.135-15.291 22.102-35.21 25.925-57.428l-39.29 10.549c-3.823 22.218-12.819 42.137-25.925 57.399z" fill="#e5384f" fill-rule="evenodd"/></g><g><path d="m40.745 350.42c-1.514 0-3.043-.456-4.369-1.404-15.766-11.27-28.132-26.612-35.763-44.367-1.641-3.818.124-8.243 3.942-9.884 3.822-1.642 8.244.124 9.885 3.942 6.546 15.23 17.158 28.394 30.688 38.067 3.381 2.417 4.162 7.117 1.746 10.497-1.469 2.055-3.781 3.149-6.129 3.149zm46.114-23.251c-.628 0-1.266-.079-1.903-.245-20.771-5.413-57.356-21.59-69.016-69.125-.99-4.036 1.479-8.111 5.516-9.101 4.038-.991 8.11 1.48 9.1 5.516 9.308 37.951 36.784 52.568 58.195 58.147 4.021 1.048 6.431 5.157 5.384 9.179-.882 3.384-3.933 5.629-7.276 5.629z" fill="#dddaec"/></g><g><path d="m471.254 350.42c-2.347 0-4.658-1.094-6.127-3.149-2.416-3.381-1.635-8.081 1.746-10.497 13.531-9.673 24.142-22.837 30.688-38.067 1.641-3.818 6.064-5.583 9.885-3.942 3.817 1.641 5.583 6.066 3.942 9.884-7.63 17.755-19.997 33.096-35.763 44.367-1.327.948-2.857 1.404-4.371 1.404zm-46.141-23.251c-3.343 0-6.394-2.244-7.277-5.629-1.047-4.021 1.363-8.131 5.384-9.179 21.424-5.583 48.917-20.202 58.223-58.147.991-4.036 5.069-6.504 9.1-5.516 4.037.99 6.506 5.064 5.516 9.101-11.657 47.528-48.262 63.71-69.044 69.125-.637.165-1.274.245-1.902.245z" fill="#dddaec"/></g></g></svg>