<?xml version="1.0" encoding="iso-8859-1"?>
<!-- Generator: Adobe Illustrator 19.0.0, SVG Export Plug-In . SVG Version: 6.00 Build 0)  -->
<svg version="1.1" id="Capa_1" xmlns="http://www.w3.org/2000/svg" xmlns:xlink="http://www.w3.org/1999/xlink" x="0px" y="0px"
	 viewBox="0 0 512 512" style="enable-background:new 0 0 512 512;" xml:space="preserve">
<polygon style="fill:#C78F2C;" points="146.615,473.902 146.615,410.117 104.714,400.109 114.722,473.902 "/>
<g>
	<polygon style="fill:#E1BB78;" points="82.829,473.902 114.722,473.902 114.722,400.109 82.829,410.117 	"/>
	<polygon style="fill:#E1BB78;" points="146.615,410.117 146.615,263.051 94.706,243.035 114.722,410.117 	"/>
</g>
<polygon style="fill:#EDD7B0;" points="82.829,410.117 114.722,410.117 114.722,243.035 82.829,263.051 "/>
<path style="fill:#A3003C;" d="M229.444,152.82c0-1.906-0.049-3.801-0.141-5.684L88.333,107l26.389,160.542
	C178.081,267.542,229.444,216.179,229.444,152.82z"/>
<path style="fill:#C50048;" d="M114.716,107L0.141,147.137C0.049,149.02,0,150.914,0,152.82
	c0,63.359,51.363,114.722,114.722,114.722l0,0L114.716,107z"/>
<path style="fill:#E50058;" d="M114.722,38.098c-61.453,0-111.618,48.32-114.581,109.039l31.098,17.278l41.738-23.189l41.74,23.189
	l0.006-0.003L114.722,38.098L114.722,38.098z"/>
<path style="fill:#C50048;" d="M114.722,38.098v126.313l41.732-23.186l41.744,23.189l31.105-17.279
	C226.34,86.417,176.175,38.098,114.722,38.098z"/>
<polygon style="fill:#E1BB78;" points="365.385,38.098 365.385,101.883 407.286,111.891 397.278,38.098 "/>
<polygon style="fill:#C78F2C;" points="429.171,38.098 397.278,38.098 397.278,111.891 429.171,101.883 "/>
<polygon style="fill:#EDD7B0;" points="365.385,101.883 365.385,248.949 417.294,268.965 397.278,101.883 "/>
<polygon style="fill:#E1BB78;" points="429.171,101.883 397.278,101.883 397.278,268.965 429.171,248.949 "/>
<path style="fill:#C50048;" d="M282.556,359.18c0,1.906,0.049,3.801,0.141,5.684L423.667,405l-26.389-160.542
	C333.919,244.458,282.556,295.821,282.556,359.18z"/>
<path style="fill:#A3003C;" d="M397.284,405l114.575-40.137c0.092-1.883,0.141-3.777,0.141-5.683
	c0-63.359-51.363-114.722-114.722-114.722l0,0L397.284,405z"/>
<path style="fill:#C50048;" d="M397.278,473.902c61.453,0,111.618-48.32,114.581-109.039l-31.098-17.278l-41.738,23.189
	l-41.74-23.189l-0.006,0.003L397.278,473.902L397.278,473.902z"/>
<path style="fill:#E50058;" d="M397.278,473.902V347.589l-41.732,23.186l-41.744-23.189l-31.105,17.279
	C285.66,425.583,335.825,473.902,397.278,473.902z"/>
<g>
</g>
<g>
</g>
<g>
</g>
<g>
</g>
<g>
</g>
<g>
</g>
<g>
</g>
<g>
</g>
<g>
</g>
<g>
</g>
<g>
</g>
<g>
</g>
<g>
</g>
<g>
</g>
<g>
</g>
</svg>
