<svg id="Capa_1" enable-background="new 0 0 512 512" height="512" viewBox="0 0 512 512" width="512" xmlns="http://www.w3.org/2000/svg"><g><g><path d="m89.245 289.309h-30.553c-32.363 0-58.692-26.329-58.692-58.692v-36.478c0-32.363 26.329-58.692 58.692-58.692h30.553c8.284 0 15 6.716 15 15v123.862c0 8.284-6.716 15-15 15z" fill="#966641"/></g><g><path d="m453.309 289.309h-30.553c-8.284 0-15-6.716-15-15v-123.862c0-8.284 6.716-15 15-15h30.553c32.362 0 58.691 26.329 58.691 58.692v36.478c0 32.363-26.329 58.692-58.691 58.692z" fill="#7e5436"/></g><g><path d="m294.928 473.574h-78.311c-22.057 0-42.151-12.999-51.193-33.117l-22.144-49.267c-5.875-13.071-15.299-24.158-27.252-32.062l-33.979-22.47c-17.58-11.624-28.076-31.146-28.076-52.223v-131.527c0-63.126 51.356-114.482 114.482-114.482h175.092c63.126 0 114.482 51.356 114.482 114.482v131.486c0 21.11-10.522 40.651-28.147 52.271-.001 0-.001 0-.001 0l-34.184 22.536c-11.938 7.87-21.365 18.917-27.26 31.944l-22.374 49.442c-9.069 20.039-29.14 32.987-51.135 32.987zm126.696-149.432h.01z" fill="#ae774e"/></g><g><path d="m343.546 38.426h-87.546v435.149h38.928c21.995 0 42.066-12.948 51.135-32.986l22.374-49.442c5.895-13.027 15.321-24.074 27.26-31.944l34.184-22.536h.001c17.625-11.62 28.147-31.161 28.147-52.271v-131.488c-.001-63.126-51.357-114.482-114.483-114.482zm78.078 285.716h.01z" fill="#966641"/></g><path d="m392.484 278.035c11.38-9.228 17.989-23.098 17.989-37.749v-64.263c0-26.842-21.76-48.601-48.601-48.601h-211.743c-26.842 0-48.601 21.76-48.601 48.601v64.374c0 14.588 6.553 28.404 17.849 37.635l.008.007c11.296 9.23 17.849 23.047 17.849 37.635v64.596c2.299 3.453 4.329 7.1 6.047 10.922l22.144 49.267c9.042 20.118 29.137 33.117 51.193 33.117h78.311c21.995 0 42.066-12.948 51.135-32.986l22.374-49.442c1.723-3.808 3.757-7.442 6.058-10.882v-64.48c-.001-14.653 6.608-28.523 17.988-37.751z" fill="#ffc9d0"/><g><path d="m361.871 127.422h-105.871v346.152h38.928c21.995 0 42.066-12.948 51.135-32.986l22.374-49.442c1.723-3.808 3.757-7.442 6.058-10.882v-64.48c0-14.651 6.609-28.521 17.989-37.749s17.989-23.098 17.989-37.749v-64.263c0-26.841-21.76-48.601-48.602-48.601z" fill="#ffa8b4"/></g><g><path d="m180 239c-8.284 0-15-6.716-15-15v-30c0-8.284 6.716-15 15-15s15 6.716 15 15v30c0 8.284-6.716 15-15 15z" fill="#444"/></g><g><path d="m332 239c-8.284 0-15-6.716-15-15v-30c0-8.284 6.716-15 15-15s15 6.716 15 15v30c0 8.284-6.716 15-15 15z" fill="#292929"/></g><g><path d="m226 331c-8.284 0-15-6.716-15-15v-10c0-8.284 6.716-15 15-15s15 6.716 15 15v10c0 8.284-6.716 15-15 15z" fill="#895d3c"/></g><g><path d="m286 331c-8.284 0-15-6.716-15-15v-10c0-8.284 6.716-15 15-15s15 6.716 15 15v10c0 8.284-6.716 15-15 15z" fill="#714c2f"/></g><g><path d="m332 391.617h-152c-8.284 0-15-6.716-15-15s6.716-15 15-15h152c8.284 0 15 6.716 15 15s-6.716 15-15 15z" fill="#f9a7b0"/></g><g><path d="m332 361.617h-76v30h76c8.284 0 15-6.716 15-15s-6.716-15-15-15z" fill="#f27281"/></g></g></svg>