<svg id="Capa_1" enable-background="new 0 0 512 512" height="512" viewBox="0 0 512 512" width="512" xmlns="http://www.w3.org/2000/svg"><g><g id="XMLID_1_"><path d="m472.31 39.18c2.57 4.64 62.59 114.61 30.04 208.9-10.49 30.36-29.29 55.52-56.11 75.16 6.11-32.15 5.94-65.23-6.13-95.65 17.71-20.83 25.34-46.96 22.21-76.96-3.05-29.31-15.58-51.97-16.12-52.93-3.57-6.39-11.24-9.26-18.14-6.79-.8.28-19.75 7.18-37.43 22.13-13.48 11.41-22.79 24.45-27.73 38.66-16.94-7.21-34.99-11.95-53.17-14.88 3.09-9.08 7.42-18.73 13.45-28.42 28.89-46.53 80.25-68.45 133.7-76.75 6.21-.97 12.38 2.04 15.43 7.53z"/><path d="m432.58 154.59c1.59 16.66-1.29 31.33-8.57 43.88-9.15-12.43-20.57-23.26-34.11-32.29 4.16-18.09 19.63-31.91 35.75-41.02 2.81 7.6 5.83 17.96 6.93 29.43z"/><path d="m406.03 225.75c15.24 26.63 18.2 60.64 8.81 101.07-7.48 32.52-20.64 65.39-40.78 92.17-31.49 42.22-73.74 61.5-117.84 61.55h-.22c-44.56 0-86.65-19.53-118.07-61.54-20.3-27.18-33.18-59.41-40.78-92.19-9.39-40.41-6.42-74.42 8.82-101.06 28.28-49.5 93.76-63.36 150.26-63.36 57.54.86 121.38 13.61 149.8 63.36zm-46.68 57.47c0-8.28-6.71-15-15-15-8.28 0-15 6.72-15 15 0 8.29 6.72 15 15 15 8.29 0 15-6.71 15-15zm-37.52 98.23c3.32-7.59-.15-16.43-7.74-19.75l-.2-.09c-35.93-15.72-78.27-16.48-116.02.11-7.58 3.33-11.02 12.19-7.69 19.77 3.34 7.58 12.19 11.03 19.77 7.69 1.13-.5 2.26-.97 3.4-1.43v15.96c0 8.29 6.72 15 15 15s15-6.71 15-15v-23.48c8.4-.93 16.89-.93 25.3.01v23.47c0 8.29 6.72 15 15 15 8.27 0 14.99-6.71 14.99-15v-15.96c1.08.43 2.16.88 3.23 1.35l.21.1c7.62 3.3 16.44-.16 19.75-7.75zm-19.23-55.99c5.85-5.86 5.85-15.35 0-21.21l-13.19-13.2c-8.99-8.99-20.94-13.94-33.65-13.94s-24.66 4.95-33.65 13.94l-12.96 12.97c-5.86 5.86-5.86 15.36 0 21.21 5.86 5.86 15.35 5.86 21.2 0l12.97-12.97c6.84-6.84 17.95-6.91 24.88 0l13.19 13.2c5.87 5.87 15.38 5.83 21.21 0zm-119.95-42.24c0-8.28-6.72-15-15-15-8.29 0-15 6.72-15 15 0 8.29 6.71 15 15 15 8.28 0 15-6.71 15-15z"/><path d="m188.82 108.39c6.03 9.7 10.36 19.35 13.45 28.43-18.03 2.9-35.9 7.56-52.78 14.72-4.94-14.15-14.23-27.13-27.66-38.5-17.68-14.95-36.63-21.85-37.43-22.13-6.9-2.47-14.58.4-18.14 6.79-.54.96-13.07 23.62-16.12 52.93-3.11 29.81 4.41 55.82 21.89 76.59-12.32 30.34-12.33 64.22-6.29 96.01-26.81-19.64-45.6-44.79-56.09-75.15-32.55-94.29 27.47-204.26 30.04-208.9 3.05-5.49 9.21-8.51 15.43-7.54 53.44 8.31 104.81 30.23 133.7 76.75z"/><path d="m86.81 125.16c15.96 9.02 31.43 22.74 35.69 40.75-13.58 9-25.05 19.79-34.25 32.2-7.14-12.47-9.94-27.02-8.37-43.52 1.1-11.47 4.12-21.83 6.93-29.43z"/></g></g></svg>