<svg id="Capa_1" enable-background="new 0 0 512 512" height="512" viewBox="0 0 512 512" width="512" xmlns="http://www.w3.org/2000/svg"><g><path d="m108.579 46.3c8.736-12.38 19.522-24.258 32.17-34.73-22.585-12.642-48.756-15.963-71.18-4.59-20.43 10.34-33.93 30.58-38 57.01-4.372 28.354 3.111 58.541 16.9 82.77 18.861-44.346 38.182-69.473 60.11-100.46z"/><path d="m480.429 63.99c-4.07-26.43-17.57-46.67-37.99-57.01-22.537-11.41-48.735-7.996-71.2 4.6 12.07 9.99 22.91 21.62 32.16 34.69 22.442 31.715 41.386 56.399 60.15 100.46 13.913-24.544 21.221-54.589 16.88-82.74z"/><path d="m240.999 408.75v20.58c0 2.02 1.65 3.67 3.67 3.67h22.66c2.02 0 3.67-1.65 3.67-3.67v-20.58c-5.59-1.98-10.67-5.04-15-8.92-4.33 3.88-9.41 6.94-15 8.92z"/><path d="m278.699 267.41c.67-1.33 1.22-2.64 1.65-3.94.51-1.53-.17-3.21-1.68-4.18-13.856-8.902-31.872-8.868-45.74.33-1.12.74-1.7 2.18-1.34 3.34 1.61 5.28 5.46 11.07 11.14 16.75 7.295 7.336 19.335 7.346 26.64 0 4.17-4.18 7.29-8.29 9.32-12.28 0-.01 0-.02.01-.02z"/><path d="m297.679 292.97c-7.387 9.338-15.197 16.254-26.68 19.92v53.43c0 8.27 6.73 15 15 15 4 0 7.77-1.56 10.6-4.4 2.84-2.83 4.4-6.6 4.4-10.6 0-8.28 6.72-15 15-15s15 6.72 15 15c0 12.01-4.68 23.31-13.18 31.82-4.83 4.83-10.57 8.42-16.82 10.63v20.56c0 18.57-15.1 33.67-33.67 33.67h-22.66c-18.57 0-33.67-15.1-33.67-33.67v-20.56c-6.25-2.21-11.99-5.8-16.82-10.63-8.5-8.51-13.18-19.81-13.18-31.82 0-8.28 6.72-15 15-15s15 6.72 15 15c0 4 1.56 7.77 4.4 10.6 2.83 2.84 6.6 4.4 10.6 4.4 8.27 0 15-6.73 15-15v-53.46c-11.447-3.69-19.248-10.591-26.6-19.92-50.47 22.48-84.85 83.44-84.85 152.81 0 2.49.02 12.71.04 25.69 34.34 26.07 76.67 40.56 120.29 40.56h12.24c44.147 0 86.433-14.723 120.28-40.52.03-12.99.05-23.26.05-25.73 0-69.32-34.35-130.27-84.77-152.78z"/><path d="m448.039 191.07c-19.265-60.616-46.274-95.169-69.13-127.48-28.18-39.82-74.13-63.59-122.91-63.59-48.602 0-94.662 23.586-122.91 63.6-22.154 31.291-41.758 56.639-59.96 101.98-17.02 42.382-26.38 88.537-26.38 136.39 0 26.531 4.892 52.728 14.4 77.5 9.05 23.44 21.95 44.9 38.42 63.84.82-79.87 41.92-150.32 102.12-177.53-1.3-12.05 4.24-24.27 14.67-31.17 23.808-15.771 54.667-15.892 78.52-.56 10.92 7.01 16.71 19.38 15.46 31.75 60.18 27.21 101.27 97.67 102.09 177.51 16.46-18.94 29.37-40.4 38.42-63.86 9.515-24.708 14.4-50.963 14.4-77.48 0-36.664-5.492-73.978-17.21-110.9zm-290.89 19.84c-8.29 0-15-6.72-15-15 0-8.29 6.71-15 15-15 8.28 0 15 6.71 15 15 0 8.28-6.72 15-15 15zm197.8 0c-8.28 0-15-6.72-15-15 0-8.29 6.72-15 15-15 8.29 0 15 6.71 15 15 0 8.28-6.71 15-15 15z"/></g></svg>