<svg id="Capa_1" enable-background="new 0 0 512 512" height="512" viewBox="0 0 512 512" width="512" xmlns="http://www.w3.org/2000/svg"><g><path d="m503.779 483.617-40.818-20.692-22.761-62.864c-1.456-4.021-4.559-7.23-8.529-8.819l-48.913-19.581v-104.498l33.101 3.802 33.265 75.064c1.221 2.756 3.245 5.08 5.806 6.669l34.159 21.192c7.04 4.368 16.288 2.2 20.654-4.838 4.368-7.039 2.201-16.286-4.838-20.654l-30.227-18.753-34.867-78.68c-2.154-4.861-6.72-8.218-12.002-8.825l-45.049-5.174v-13.058h-111.76v287.198c56.863-6.721 102.299-51.233 110.451-107.654l32.831 13.143 22.495 62.129c1.299 3.589 3.917 6.547 7.322 8.272 50.303 25.5 48.067 25.003 52.887 25.003 5.473 0 10.747-3.006 13.391-8.221 3.745-7.389.791-16.415-6.598-20.161z"/><path d="m12.393 76.81 27.411 4.844 24.482 66.741c1.434 3.91 4.429 7.047 8.267 8.661l56.864 23.917c-.116 1.743-.175 9.496-.175 11.256v1.68h253.517v-1.68c0-1.76-.059-9.513-.175-11.256l56.864-23.917c3.838-1.614 6.833-4.751 8.267-8.661l24.482-66.741 27.411-4.844c8.158-1.441 13.602-9.223 12.16-17.381-1.441-8.157-9.221-13.603-17.381-12.161l-35.911 6.346c-5.262.93-9.632 4.588-11.472 9.605l-25.206 68.714-46.946 19.746c-6.788-14.135-17.663-26.246-31.543-34.41-12.24-7.22-26.26-11.03-40.539-11.03h-93.539c-14.28 0-28.3 3.81-40.53 11.02-13.886 8.17-24.764 20.284-31.553 34.42l-46.947-19.746-25.205-68.714c-1.84-5.017-6.21-8.676-11.472-9.605l-35.911-6.346c-8.159-1.445-15.94 4.003-17.381 12.161-1.442 8.158 4.003 15.94 12.161 17.381z"/><path d="m302.769 76.239c16.55 0 32.84 3.72 47.609 10.82-3.889-48.649-44.739-87.059-94.378-87.059-49.649 0-90.499 38.41-94.379 87.069 14.79-7.11 31.07-10.83 47.609-10.83z"/><path d="m129.242 236.966-45.049 5.174c-5.282.606-9.848 3.964-12.002 8.825l-34.867 78.68-30.229 18.753c-7.039 4.367-9.206 13.614-4.838 20.654 4.369 7.042 13.616 9.204 20.654 4.838l34.159-21.192c2.561-1.589 4.585-3.913 5.806-6.669l33.265-75.064 33.101-3.802v104.498l-48.913 19.581c-3.97 1.589-7.073 4.798-8.529 8.819l-22.761 62.864-40.818 20.692c-7.389 3.746-10.343 12.772-6.597 20.161 3.75 7.397 12.78 10.34 20.161 6.597l46.117-23.378c3.404-1.726 6.022-4.684 7.322-8.272l22.495-62.129 32.831-13.143c8.152 56.421 53.588 100.933 110.451 107.654v-287.199h-111.759z"/></g></svg>