<svg id="Capa_1" enable-background="new 0 0 512 512" height="512" viewBox="0 0 512 512" width="512" xmlns="http://www.w3.org/2000/svg"><g><g id="XMLID_1_"><path d="m512 269.46v86.62c0 56.25-45.77 102.02-102.04 102.02h-.03c.29-.22.57-.45.85-.68 13.5-11.02 24.99-23.92 34.24-38.45 22.05-12.32 36.98-35.89 36.98-62.89v-86.62c0-8.29 6.72-15 15-15s15 6.71 15 15z"/><path d="m430.94 14.16c24.74 45.25 29.73 99.61 12 149.88-9.59-24.04-21.26-45.13-26.21-52.57-20.03-32.27-43.03-56.15-70.12-72.77l59.88-36.51c7.3-4.44 16.86-1.9 20.97 5.61z"/><path d="m437.32 253.12c18.19 94.48-7.29 148.17-42.67 178.67 3.68-65.43-41.5-111.53-105.19-128.89-22.41-6.1-45.43-5.86-66.92.01-72.86 19.8-108.4 71.74-105.19 128.88-35.38-30.5-60.86-84.19-42.67-178.67 3.69-19.21 8.32-37.48 13.76-54.33.03-.09.06-.19.09-.28 17.53-54.24 48.83-110.29 98.53-137.74 42.64-23.56 93.96-24.27 137.88 0 49.74 27.5 80.98 83.37 98.59 137.92 5.43 16.82 10.07 35.13 13.79 54.43zm-84.46-14.26c0-8.29-6.71-15-15-15-8.28 0-15 6.71-15 15 0 8.28 6.72 15 15 15 8.29 0 15-6.72 15-15zm-163.72 0c0-8.29-6.72-15-15-15-8.29 0-15 6.71-15 15 0 8.28 6.71 15 15 15 8.28 0 15-6.72 15-15z"/><path d="m364.71 420.61c1.84 38.16-19.88 64.89-54.4 80.03-35.12 15.43-74.77 14.86-108.62 0-34.89-15.31-56.24-42.28-54.4-80 1.37-25.82 12.27-47.28 32.4-63.82 16.77-13.79 36.85-21.2 50.74-24.98 17.27-4.7 34.87-4.44 51.15 0 13.88 3.78 33.96 11.19 50.73 24.98 20.13 16.54 31.03 38 32.4 63.79zm-59.68-.43c0-8.28-6.71-15-15-15-8.28 0-15 6.72-15 15s6.72 15 15 15c8.29 0 15-6.72 15-15zm-68.06 0c0-8.28-6.72-15-15-15-8.29 0-15 6.72-15 15s6.71 15 15 15c8.28 0 15-6.72 15-15z"/><path d="m105.51 2.19 59.88 36.51c-43.48 26.66-69.07 70.67-70.17 72.88l-.02.03c-9.85 15.98-18.6 33.54-26.13 52.44-17.69-50.09-12.83-104.49 11.99-149.89l3.48-6.36c4.1-7.49 13.65-10.06 20.97-5.61z"/><path d="m102.07 458.1h-.03c-56.27 0-102.04-45.77-102.04-102.02v-86.62c0-8.29 6.72-15 15-15s15 6.71 15 15v86.62c0 27 14.93 50.57 36.98 62.89 10.31 16.2 24.26 30.92 35.09 39.13z"/></g></g></svg>