<svg id="Capa_1" enable-background="new 0 0 512 512" height="512" viewBox="0 0 512 512" width="512" xmlns="http://www.w3.org/2000/svg"><g><path d="m191.24 327.67c-83.66 0-86.391.647-102.85-2.2-23.24 41.9-11.14 99.56-10.52 102.38 1.22 5.62 5.77 10.02 11.6 11.19 30.068 5.97 72.273 5.42 101.88-8.07-.157-2.786-.11 4.332-.11-103.3zm-50.79 65.02c-8.29 0-15-6.72-15-15 0-8.29 6.71-15 15-15 8.28 0 15 6.71 15 15 0 8.28-6.72 15-15 15z"/><path d="m320.76 327.67c0 107.601.047 100.513-.11 103.3 29.52 13.45 71.69 14.064 101.88 8.07 5.83-1.17 10.38-5.57 11.6-11.19.62-2.82 12.72-60.48-10.52-102.38-16.467 2.849-19.169 2.2-102.85 2.2zm50.79 65.02c-8.28 0-15-6.72-15-15 0-8.29 6.72-15 15-15 8.29 0 15 6.71 15 15 0 8.28-6.71 15-15 15z"/><path d="m288.183 50.4c-8.072-1.847-16.117 3.211-17.96 11.287l-5.988 26.243c-5.282-1.283-10.89-1.356-16.47 0l-5.988-26.243c-1.842-8.076-9.885-13.128-17.96-11.287-8.077 1.843-13.13 9.884-11.288 17.961l10.017 43.904c-.845 3.001-1.306 6.164-1.306 9.435v129.72h69.52v-129.72c0-3.272-.462-6.434-1.306-9.435l10.017-43.904c1.842-8.077-3.211-16.118-11.288-17.961z"/><path d="m131.28 215.19c0-5.98-8.35-18.88-25.82-27.62-20.197-10.099-36.643-7.075-38.85-2.66-.86 1.71-.26 5.71 3.03 10.78 9.539 14.716 33.091 26.603 50.82 25.42 4.259-.297 10.82-1.621 10.82-5.92z"/><path d="m191.24 297.67v-174.42c-18.31-11.96-40.46-18.95-64.28-18.95h-111.96c-8.28 0-15 6.39-15 14.29v70.46c0 59.8 51.01 108.48 113.77 108.62zm-146.78-85.67c-8.95-13.81-10.65-28.58-4.68-40.51 18.415-36.831 87.93-20.644 113.27 18.48 14.462 22.315 8.767 44.47-9.01 54.84-29.09 16.99-79.571-1.915-99.58-32.81z"/><path d="m434.95 180.86c-9.527-.586-19.874 2.442-28.41 6.71-19.63 9.82-27.74 24.89-25.44 29.49 2.219 4.437 18.724 7.419 38.86-2.66 19.966-9.993 27.701-24.974 25.43-29.49-.86-1.72-4.42-3.63-10.44-4.05z"/><path d="m497 104.301h-111.96c-23.82 0-45.97 6.99-64.28 18.95v174.42h77.47c62.76-.14 113.77-48.82 113.77-108.62v-70.46c0-7.901-6.72-14.29-15-14.29zm-29.46 107.699c-15.353 23.706-49.244 40.988-78.05 39.04-34.465-2.374-49.298-32.126-30.54-61.07 15.489-23.914 49.524-40.987 78.05-39.04 34.465 2.374 49.298 32.127 30.54 61.07z"/><path d="m221.24 281.42h69.52v30h-69.52z"/><path d="m221.24 427.22c0 19.2 15.56 34.76 34.76 34.76 19.199 0 34.76-15.559 34.76-34.76v-85.8h-69.52z"/></g></svg>