<svg id="Capa_1" enable-background="new 0 0 512 512" height="512" viewBox="0 0 512 512" width="512" xmlns="http://www.w3.org/2000/svg"><g><path d="m101.079 76.968 20.14-31.66c-6.44-6.41-13.19-12.54-20.24-18.39-13.26-10.99-30.76-13.18-45.68-5.72-15.62 7.81-24.77 24.09-23.87 42.48.78 15.71 2.42 30.62 4.9 44.62 17.59-16.985 40.497-26.989 64.75-31.33z"/><path d="m456.701 21.198c-14.92-7.46-32.42-5.27-45.69 5.73-7.04 5.84-13.79 11.97-20.23 18.38l20.14 31.65c23.886 4.264 47.082 14.222 64.75 31.29 2.48-13.99 4.12-28.88 4.9-44.58.9-18.38-8.25-34.66-23.87-42.47z"/><path d="m393.151 104.918-34.37-54.03c-9.91-15.55-24.87-28.52-43.28-37.5-36.576-17.84-82.379-17.862-119 0-18.41 8.98-33.37 21.95-43.28 37.51l-34.37 54.02c-30.149 2.24-59.701 14.947-74.73 41.95-9.03 16.26-12.05 36.35-8.96 59.8l.04.24c4.138 30.557 19.662 54.843 43.51 71.35 10.17 7.05 22.77 18.78 33.36 37.79l9.96-43.76c3.97-17.42 11.17-33.66 21.39-48.26 10.23-14.63 23.02-26.95 38-36.62 45.413-29.356 103.902-29.246 149.141-.01 30.31 19.57 51.4 49.73 59.4 84.9l9.96 43.77c10.59-19.03 23.19-30.76 33.36-37.81 23.519-16.272 39.333-40.415 43.52-71.35l.04-.24c0-.03 0-.06.01-.08 3.08-23.37.06-43.46-8.97-59.71-18.821-33.899-57.261-40.669-74.731-41.96zm-248.241 73.961c-7.22 0-13.08-5.86-13.08-13.09s5.86-13.09 13.08-13.09c7.23 0 13.09 5.86 13.09 13.09s-5.86 13.09-13.09 13.09zm222.18 0c-7.23 0-13.09-5.86-13.09-13.09s5.86-13.09 13.09-13.09c7.22 0 13.08 5.86 13.08 13.09s-5.86 13.09-13.08 13.09z"/><path d="m360.71 278.959c-11.237-49.424-55.024-83.52-104.71-83.52-50.062 0-93.518 34.462-104.72 83.52-24.495 107.578-22.962 100.664-23.62 104.16-4.67 25.28-.23 51.5 12.51 73.85 19.136 33.569 55.044 55.031 94.73 55.031h42.19c39.07 0 75.38-21.09 94.73-55.04 9.38-16.43 14.33-35.11 14.33-54.02 0-16.307-.859-16.02-25.44-123.981zm-32.92 138.181c-3.83 20.25-21.66 35.61-43.01 35.61-11.01 0-21.09-4.09-28.78-10.81-7.69 6.72-17.77 10.81-28.78 10.81-21.35 0-39.18-15.36-43.01-35.61-.913-2.776-.76-4.589-.76-8.16 0-8.28 6.71-15 15-15 8.28 0 15 6.72 15 15 0 7.6 6.18 13.77 13.77 13.77 7.6 0 13.78-6.17 13.78-13.77v-99.84l-30.68-12.62c-7.66-3.15-11.31-11.92-8.16-19.58s11.91-11.32 19.58-8.17l34.26 14.09 34.26-14.09c7.66-3.15 16.43.51 19.58 8.17s-.5 16.43-8.16 19.58l-30.68 12.619v99.84c0 7.6 6.18 13.77 13.78 13.77 7.59 0 13.77-6.17 13.77-13.77 0-8.28 6.72-15 15-15 8.29 0 15 6.72 15 15 0 3.58.152 5.388-.76 8.161z"/></g></svg>