<svg id="Capa_1" enable-background="new 0 0 510.56 510.56" height="512" viewBox="0 0 510.56 510.56" width="512" xmlns="http://www.w3.org/2000/svg"><g><g><path d="m322.5 362.66 94.46 25.66c-9.34 13.93-20.51 26.66-33.23 37.73l-76.41 66.49c-10.61 9.23-23.41 15.4-37.04 18.02v-111.5c0-8.28-6.72-15-15-15s-15 6.72-15 15v111.5c-13.63-2.62-26.42-8.79-37.03-18.02l-76.42-66.49c-12.99-11.3-24.36-24.34-33.82-38.63l93.52-24.74c.21-.05.42-.12.63-.18 44.09-13.76 90.71-13.76 134.8 0 .18.05.36.11.54.16z"/><path d="m99.7 96.66c-47.97 13.69-81.46 58.1-81.46 108.04 0 27.84 10.51 54.66 28.85 75.12 52.35-4.17 93.67-48.1 93.67-101.5 0-33.39-16.16-63.09-41.06-81.66zm-5.12 114.87c-8.28 0-15-6.71-15-15 0-8.28 6.72-15 15-15 8.29 0 15 6.72 15 15 0 8.29-6.71 15-15 15z"/><path d="m187.55 80.52-24.29-30.66c8.64-4.38 18.26-6.71 28.09-6.71 4.86 0 9.55-1.07 13.95-3.18 4.3-2.07 8.16-5.15 11.16-8.89l16.16-20.19c5.54-6.92 13.79-10.89 22.66-10.89s17.12 3.97 22.66 10.89l16.16 20.19c6.14 7.67 15.29 12.07 25.11 12.07 8.26 0 16.31 1.61 23.94 4.8 1.95.82 3.86 1.73 5.71 2.74l-26.65 29.07c-.2.22-.39.45-.58.68-27.11 33.35-47.65 76.97-59.38 126.16-2.15 9.04-6.18 12.08-7.69 12.08s-5.53-3.04-7.69-12.08c-5.82-24.4-13.83-47.54-23.79-68.77-10.06-21.39-22.01-40.68-35.53-57.31z"/><path d="m339.8 178.32c0-38.49 16.58-73.18 42.97-97.3-1-.9-1.97-1.83-2.92-2.79l-8.06-8.15-27.16 29.62c-24.15 29.84-42.54 69.2-53.2 113.86-5.08 21.33-19.56 35.12-36.87 35.12s-31.78-13.79-36.87-35.12c-5.35-22.41-12.67-43.6-21.77-62.97-9.03-19.23-19.7-36.46-31.71-51.22-.04-.05-.08-.1-.12-.15l-24.08-30.39-9.3 9.39c-.95.96-1.93 1.9-2.93 2.79 26.4 24.12 42.98 58.82 42.98 97.31 0 64.68-46.82 118.63-108.35 129.74l2.45 11.89c2.86 13.95 7.3 27.5 13.17 40.4l100.51-26.59c49.76-15.45 102.33-15.45 152.09.02l101.45 27.57c6.1-13.21 10.69-27.1 13.62-41.4l2.45-11.89c-61.53-11.11-108.35-65.06-108.35-129.74zm-159.34 128.14c-8.29 0-15-6.72-15-15 0-8.29 6.71-15 15-15 8.28 0 15 6.71 15 15 0 8.28-6.72 15-15 15zm149.64 0c-8.28 0-15-6.72-15-15 0-8.29 6.72-15 15-15 8.29 0 15 6.71 15 15 0 8.28-6.71 15-15 15z"/><path d="m410.86 96.66c-24.9 18.57-41.06 48.27-41.06 81.66 0 53.4 41.32 97.33 93.67 101.5 18.34-20.45 28.85-47.27 28.85-75.12 0-49.94-33.49-94.34-81.46-108.04zm5.12 114.87c-8.29 0-15-6.71-15-15 0-8.28 6.71-15 15-15 8.28 0 15 6.72 15 15 0 8.29-6.72 15-15 15z"/></g></g></svg>