<svg id="Capa_1" enable-background="new 0 0 512 512" height="512" viewBox="0 0 512 512" width="512" xmlns="http://www.w3.org/2000/svg"><g><path d="m293.73 443.052-19.02-3.25c-11.912-2.05-24.686-2.188-37.44 0l-19 3.25c-12.235 24.166-8.015 15.828-19.1 37.73 37.312 10.764 76.647 10.673 113.661.01-12.083-23.871-6.939-13.707-19.101-37.74z"/><path d="m98.429 445.042 28.61 58.55c5.447 11.133 21.268 11.222 26.86.19l27.56-54.45c-18.575 3.177-47.111 10.617-83.03-4.29z"/><path d="m330.54 449.342 27.56 54.44c5.592 11.032 21.413 10.943 26.86-.19l28.61-58.55c-35.678 14.808-63.884 7.564-83.03 4.3z"/><path d="m72.879 186.071c1.25.86 2.06 2.1 2.32 3.5l4.24 29.69c27.459-23.401 57.829-33.99 89.641-33.99 40.265 0 63.983 16.116 86.92 29.16 22.786-12.952 46.499-29.15 86.93-29.15 31.284 0 62.073 10.384 89.521 33.88l4.35-29.57c.25-1.4 1.07-2.65 2.3-3.5 27.65-19.08 44.15-50.5 44.15-84.04 0-56.271-45.78-102.051-102.06-102.051-45.931 0-69.205 28.328-75.81 32.39-29.935-19.734-68.821-19.737-98.761 0-6.607-4.062-29.832-32.39-75.811-32.39-56.28 0-102.06 45.78-102.06 102.051 0 33.54 16.5 64.96 44.13 84.02zm311.522-113.621c8.29 0 15 6.71 15 15 0 8.28-6.71 15-15 15-8.28 0-15-6.72-15-15 0-8.29 6.72-15 15-15zm-91.001 95.841c-2.945 7.724-11.589 11.629-19.36 8.67-11.234-4.292-24.017-4.568-35.94-.05-7.15 2.82-15.4-.25-18.9-7.26-3.71-7.41-.71-16.42 6.7-20.12 2.498-1.221 14.723-5.9 30.1-5.9 9.74 0 19.48 1.77 28.74 5.3 7.74 2.95 11.62 11.62 8.66 19.36zm-92.6-65.881 26.47-10.1c18.945-7.214 39.324-6.918 57.47 0l26.46 10.1c7.74 2.95 11.62 11.62 8.67 19.36-2.984 7.828-11.731 11.575-19.36 8.67l-26.47-10.1c-11.711-4.467-24.511-4.413-36.08 0l-26.47 10.1c-7.74 2.95-16.41-.93-19.36-8.67s.93-16.409 8.67-19.36zm-73.201-29.96c8.28 0 15 6.71 15 15 0 8.28-6.72 15-15 15-8.29 0-15-6.72-15-15 0-8.29 6.71-15 15-15z"/><path d="m451.971 275.332-40.55-34.68c-.03-.02-.06-.05-.1-.08l-.31-.26c-33.41-28.54-81.52-33.13-119.731-11.42l-26.63 15.13c-5.35 3.04-11.95 3.04-17.3 0l-26.63-15.13c-38.23-21.73-86.37-17.11-119.751 11.44l-40.94 35c-19.45 16.618-24.717 44.6-12.72 67.11l18.42 34.65c18.05 33.97 55.59 52.08 93.021 45.69l73.47-12.55c15.8-2.71 31.88-2.69 47.55 0l73.48 12.55c37.52 6.4 75.01-11.8 93.021-45.69l18.42-34.65c11.985-22.486 6.753-50.473-12.72-67.11zm-251.581 27.92c-5.289 6.339-14.72 7.245-21.13 1.93-11.483-9.569-28.137-11.313-43.33.18-6.6 4.99-16.01 3.68-21.01-2.93-4.99-6.61-3.67-16.02 2.94-21.01 27.145-20.533 59.154-17.149 80.6.7 6.36 5.299 7.23 14.76 1.93 21.13zm196.691-.82c-5 6.61-14.4 7.92-21.01 2.93-15.083-11.41-31.758-9.824-43.33-.18-6.41 5.315-15.841 4.41-21.13-1.93-5.3-6.37-4.43-15.83 1.93-21.13 21.578-17.958 53.571-21.145 80.6-.7 6.61 4.989 7.93 14.4 2.94 21.01z"/></g></svg>