<svg id="Capa_1" enable-background="new 0 0 512 512" height="512" viewBox="0 0 512 512" width="512" xmlns="http://www.w3.org/2000/svg"><g><g id="XMLID_1_"><path d="m503.52 132.36c6.55 3.17 9.89 10.59 7.92 17.62-7.72 27.52-29.9 60.91-61.53 71.03-4.43-37.8-18.59-69.37-39.87-94.44 19.71-9.33 42.62-9 64.09-4.11 16.74 3.82 28.89 9.66 29.39 9.9z"/><path d="m478.67 2.1c7.13 4.22 9.49 13.44 5.28 20.59l-17.58 29.81c-10.92 18.52-28.03 32.88-48.16 40.42-.07.03-.15.06-.23.09l-39.73 14.16c-1.85 9.22-4.12 17.26-6.21 23.66 28.71 24.88 46.01 59.15 48.95 103.25 3.82 58.66-28.92 104.34-52.83 137.71-10.77 15.02-20.95 29.22-22.33 37.62-3.13 19.21-5.51 45.65-19.05 67.51-12.2 19.7-30.91 31.46-55.74 35.08v-105.17c9.94-3.9 17.53-11.62 23.3-20.52 2.49-3.85 4.4-7.78 5.72-11.77 4.2-12.73-.81-26.72-12.17-34.04-19.9-12.81-45.24-12.27-64.4.46-10.64 7.07-15.49 20.48-11.77 32.61 3.8 12.43 15.06 27.67 29.32 33.26v105.16h-.01c-24.82-3.61-43.51-15.38-55.71-35.08-13.54-21.86-15.92-48.3-19.05-67.5-1.37-8.33-11.58-22.46-22.39-37.41-24.17-33.45-57.27-79.25-52.76-138.09 3.07-40.11 18.48-75.86 49.06-102.64-2.13-6.47-4.46-14.67-6.36-24.1l-39.73-14.16c-.07-.03-.15-.06-.22-.08-20.13-7.55-37.24-21.91-48.16-40.43l-17.58-29.81c-4.22-7.15-1.85-16.37 5.28-20.59 7.13-4.23 16.33-1.86 20.54 5.29l17.58 29.81c7.43 12.59 19.05 22.36 32.74 27.52l25.74 9.18c-.6-22.87 3.15-44.49 11.26-64.51 3.12-7.7 11.87-11.4 19.54-8.28 7.68 3.12 11.37 11.89 8.26 19.58-8.86 21.87-11.28 46.39-7.2 72.89 0 .03 0 .06.01.09 1.11 7.16 2.58 13.66 4.11 19.3 56.15-32.06 125.48-31.2 180.17-.29 1.5-5.57 2.95-11.97 4.04-19.01 0-.03.01-.07.01-.1 4.07-26.49 1.65-51.01-7.2-72.88-3.12-7.69.58-16.46 8.25-19.58 7.68-3.12 16.43.58 19.54 8.28 8.11 20.02 11.87 41.64 11.26 64.51l25.75-9.18c13.68-5.16 25.3-14.93 32.73-27.52l17.58-29.81c4.22-7.15 13.42-9.52 20.55-5.29zm-130.74 254.34c0-8.3-6.71-15.04-15-15.04-8.28 0-15 6.74-15 15.04 0 8.31 6.72 15.03 15 15.03 8.29 0 15-6.72 15-15.03zm-153.86 0c0-8.3-6.72-15.04-15-15.04-8.29 0-15 6.74-15 15.04 0 8.31 6.71 15.03 15 15.03 8.28 0 15-6.72 15-15.03z"/><path d="m271.39 365.62c-1.23 3.32-3.8 7.01-7.47 10.7-4.29 4.3-11.38 4.4-15.76 0-3.68-3.69-6.24-7.37-7.47-10.7 4.59-2.89 9.88-4.4 15.35-4.4 5.45 0 10.75 1.51 15.35 4.4z"/><path d="m102.48 126.81c-23.27 27.43-36.2 61.58-40.2 94.25-31.89-10.16-54.06-43.75-61.72-71.08-1.97-7.03 1.37-14.45 7.92-17.62.5-.24 12.65-6.08 29.39-9.9 21.44-4.88 44.63-5.29 64.61 4.35z"/></g></g></svg>