<svg id="Capa_1" enable-background="new 0 0 512 512" height="512" viewBox="0 0 512 512" width="512" xmlns="http://www.w3.org/2000/svg"><g><g><path d="m91.775 326.786c1.819 1.709 3.648 3.397 5.488 5.076-20.097 13.874-46.441 21.408-57.44 21.408-12.664 0-24.564-6.071-32.173-16.715-9.146-12.805-10.161-29.298-2.663-43.037 12.713-23.317 12.91-51.334 0-75.04-7.498-13.739-6.483-30.233 2.663-43.037 8.945-12.523 23.841-18.715 38.887-16.142 14.241 2.339 35.074 10.029 50.726 20.835-1.829 1.658-3.648 3.347-5.458 5.046l-.02.01-.01.02c-20.124 18.943-30.487 44.775-30.524 70.637-.037 25.564 9.977 51.546 30.524 70.939z"/></g><g><path d="m197.56 400.277c-21.416 11.859-47.207 14.07-70.818 5.025-24.107-9.232-29.694-40.415-11.146-57.561 25.174 20.699 52.796 38.981 81.964 52.536z"/></g><g><path d="m197.54 111.718c-29.381 13.668-57.02 32.033-81.944 52.536-18.555-17.153-12.954-48.335 11.156-57.561 23.694-9.077 49.448-6.792 70.788 5.025z"/></g><g><path d="m389.913 409.906c-6.664 8.021-13.729 15.649-21.147 22.333-26.464 23.861-56.849 35.302-90.337 23.971-15.015-5.068-25.552-17.54-27.198-37.037 18.037 4.303 36.2 6.493 54.043 6.493 27.831 0 56.175-5.287 84.639-15.76z"/></g><g><path d="m389.923 102.099c-28.474-10.473-56.858-15.77-84.648-15.77-17.724 0-35.972 2.172-54.043 6.483 1.668-19.383 12.056-31.916 27.198-37.027 30.766-10.403 61.159-2.332 90.337 23.971 7.416 6.694 14.492 14.313 21.156 22.343z"/></g><g><path d="m164.603 251.736c0 41.389 11.609 80.989 33.298 115.092-12.443-6.513-24.906-14.111-37.218-22.695-13.888-9.681-46.22-34.696-56.244-48.304-17.262-23.274-17.504-56.04.01-79.683 9.83-13.317 41.273-37.862 56.244-48.294 9.89-6.895 19.87-13.147 29.831-18.705-16.925 31.118-25.921 66.165-25.921 102.589z"/><path d="m335.075 251.736c0 49.48 20.413 94.277 53.259 126.429-47.307 19.386-90.233 21.574-132.048 11.207-37.751-33.881-61.531-83.04-61.531-137.636 0-48.535 18.785-92.759 49.47-125.786 45.469-13.969 90.342-12.712 138.118 5.508-29.327 31.59-47.268 73.884-47.268 120.278z"/><path d="m481.134 191.994c-21.134-17.932-44.401-34.327-69.431-47.329-28.585 26.796-46.475 64.888-46.475 107.071 0 45.068 20.413 85.452 52.475 112.398.181-.1.362-.201.543-.301 21.097-11.579 42.254-26.323 62.888-43.832 0-.01 0-.01 0-.01 19.911-16.905 30.866-39.63 30.866-63.993v-.11c-.03-24.324-10.986-47.008-30.866-63.894zm-44.515 79.08c-8.332 0-15.076-6.754-15.076-15.076 0-8.332 6.744-15.076 15.076-15.076 8.322 0 15.076 6.744 15.076 15.076 0 8.322-6.754 15.076-15.076 15.076z"/></g></g></svg>