<svg id="Capa_1" enable-background="new 0 0 512 512" height="512" viewBox="0 0 512 512" width="512" xmlns="http://www.w3.org/2000/svg"><g><g id="XMLID_1_"><path d="m477.01 16.05c11.76 11.77 17.5 28.01 15.74 44.55s-10.79 31.2-24.76 40.22l-17.65 11.4c-13.75-31.89-37.69-57.47-67.09-73.25l8.97-13.9c10.14-15.7 27.36-25.07 46.07-25.07 14.62 0 28.36 5.7 38.72 16.05z"/><path d="m480.36 334.64c1.24 49.34-20.89 73.36-39.68 84.81-20.18 12.33-39.24 13.34-56.15 13.34-18.48 0-54.53-2.14-88.1-16.53-10.58-4.54-25.51-6.81-40.43-6.81-14.93-.01-29.86 2.27-40.44 6.81-44.47 19.06-93.32 16.62-99.85 16.19-4.64-.04-24.64-.93-44.39-13-18.78-11.45-40.92-35.47-39.7-84.82.64-25.75 6.23-46.87 16.63-62.75 8.21-12.54 19.64-21.97 33.05-27.26 10.85-4.27 16.46-3.19 31.96-10.75 10.32-5.01 20.67-9.06 30.78-12.03 30.36-8.96 59.15-8.69 97.47 8.42 9.17 4.11 20.17 4.58 30.33.4 32.08-13.26 62.68-19.3 94.79-10.44 10.31 2.83 20.89 7.03 31.44 12.5 14.88 7.73 24.16 8.57 32.62 11.9 13.42 5.29 24.85 14.72 33.06 27.27 10.39 15.88 15.98 36.99 16.61 62.75zm-83.37-15.12c0-8.28-6.71-15-15-15h-16.24c-4.95 0-8.98-4.03-8.98-8.99 0-8.28-6.72-15-15-15-8.29 0-15 6.72-15 15 0 21.5 17.49 38.99 38.98 38.99h16.24c8.29 0 15-6.72 15-15zm-211.76-23.99c0-8.28-6.72-15-15-15s-15 6.72-15 15c0 4.96-4.03 8.99-8.99 8.99h-16.23c-8.29 0-15 6.72-15 15s6.71 15 15 15h16.23c21.5 0 38.99-17.49 38.99-38.99z"/><path d="m432.32 164.41 3.86 50.35c-8.39-2.69-14.57-3.62-24.28-8.66-23.66-12.28-49.36-20.16-75.91-20.16h-.01c-25.43 0-52.09 7.27-75.59 16.99-2.21.91-4.71.82-6.64-.06-22.67-10.11-47.18-16.9-72.11-16.9-28.02 0-56.48 8.77-81.48 20.91l-.03.01-.02.02c-10.28 5-13.41 4.32-24.3 7.84l3.86-50.34c1.6-26.85 11.96-51.02 27.56-69.79 16.08-19.37 38.11-33.64 63.6-39.98 57.56-14.33 116.54-13.39 170.31-.01 14.05 3.5 27.18 9.4 39.03 17.55 29.56 20.26 49.88 53.79 52.15 92.23zm-60.33-12.79c0-8.29-6.71-15-15-15-8.28 0-15 6.71-15 15 0 8.28 6.72 15 15 15 8.29 0 15-6.72 15-15zm-201.98 0c0-8.29-6.72-15-15-15-8.29 0-15 6.71-15 15 0 8.28 6.71 15 15 15 8.28 0 15-6.72 15-15z"/><path d="m430.39 456.81-7.02 12.97c-14.07 26.04-41.2 42.22-70.81 42.22h-193.13c-29.6 0-56.73-16.18-70.81-42.22l-7.03-13.01c15.79 4.99 29.24 6.02 45.88 6.02 20.8 0 61.44-2.47 99.91-18.96 13.71-5.88 43.74-5.8 57.22 0 38.49 16.49 79.13 18.96 99.93 18.96 5.92 0 10.39-.2 12.9-.35 9.78-.18 21.58-2.03 32.96-5.63z"/><path d="m119.77 25.06 8.97 13.91c-29.99 16.1-53.66 42.01-67.09 73.24l-17.64-11.39c-13.97-9.03-23-23.69-24.76-40.23-3.45-32.43 21.97-60.59 54.45-60.59 18.71 0 35.93 9.37 46.07 25.06z"/></g></g></svg>