<svg id="Capa_1" enable-background="new 0 0 512 512" height="512" viewBox="0 0 512 512" width="512" xmlns="http://www.w3.org/2000/svg"><g><path d="m179.72 89.954c-3.828 8.79-6.199 18.354-6.76 28.398 24.531-10.059 53.644-16.2 83.04-16.2 29.33 0 58.719 6.335 83.04 16.2-.561-10.044-2.932-19.608-6.76-28.398 11.993-5.924 28.224-17.249 36.931-37.474 3.276-7.609-.237-16.434-7.846-19.709s-16.433.237-19.709 7.846c-6.076 14.113-19.215 21.198-26.403 24.142-15.096-15.345-36.076-24.887-59.253-24.887s-44.157 9.542-59.253 24.887c-7.188-2.944-20.327-10.029-26.403-24.142-3.276-7.608-12.1-11.121-19.709-7.846s-11.122 12.1-7.846 19.709c8.707 20.225 24.937 31.55 36.931 37.474z"/><path d="m497 313.844h-50.652c-1.015-22.729-5.954-44.743-14.802-65.494 12.51-7.469 22.503-18.52 28.688-31.971l8.063-17.534c3.461-7.526.165-16.434-7.362-19.895-7.528-3.462-16.435-.165-19.895 7.361l-8.063 17.534c-3.39 7.372-8.727 13.519-15.397 17.872-4.763-7.566-10.103-14.909-16.041-21.99-34.14 32.73-78.38 53-125.37 57.54l67.287 212.432c3.149 9.941 15.103 13.967 23.571 7.882 17.354-12.472 32.34-27.701 44.49-44.897 9.508 4.212 17.097 11.668 21.459 21.157l8.063 17.534c3.462 7.528 12.369 10.823 19.895 7.361 7.526-3.461 10.823-12.368 7.362-19.895l-8.063-17.534c-6.931-15.073-18.64-27.139-33.321-34.517 9.631-19.548 15.959-40.812 18.438-62.948h51.65c8.284 0 15-6.716 15-15s-6.716-14.998-15-14.998zm-104.06-2.727c8.28 0 15 6.71 15 15 0 8.28-6.72 15-15 15-8.29 0-15-6.72-15-15 0-8.29 6.71-15 15-15zm-60-21.3c0-8.28 6.71-15 15-15 8.28 0 15 6.72 15 15 0 8.29-6.72 15-15 15-8.29 0-15-6.71-15-15zm30 103.05c-8.29 0-15-6.72-15-15 0-8.29 6.71-15 15-15 8.28 0 15 6.71 15 15 0 8.28-6.72 15-15 15z"/><path d="m110.46 199.727c-5.949 7.098-11.29 14.444-16.046 22-6.677-4.353-12.02-10.504-15.412-17.881l-8.063-17.534c-3.461-7.528-12.37-10.823-19.895-7.361-7.527 3.461-10.823 12.368-7.362 19.895l8.063 17.534c6.188 13.457 16.187 24.511 28.704 31.981-8.883 20.836-13.787 42.857-14.797 65.484h-50.652c-8.284 0-15 6.716-15 15s6.716 15 15 15h51.648c2.479 22.133 8.805 43.394 18.434 62.94-14.689 7.378-26.403 19.446-33.337 34.525l-8.063 17.534c-3.461 7.526-.166 16.434 7.361 19.895 7.534 3.464 16.436.159 19.895-7.361l8.063-17.534c4.365-9.494 11.96-16.953 21.475-21.164 12.151 17.198 27.139 32.429 44.495 44.903 8.468 6.086 20.422 2.059 23.571-7.882l67.287-212.432c-46.989-4.542-91.229-24.812-125.369-57.542zm23.6 126.39c0 8.28-6.71 15-15 15-8.28 0-15-6.72-15-15 0-8.29 6.72-15 15-15 8.29 0 15 6.71 15 15zm15 66.75c-8.28 0-15-6.72-15-15 0-8.29 6.72-15 15-15 8.29 0 15 6.71 15 15 0 8.28-6.71 15-15 15zm15-88.05c-8.28 0-15-6.71-15-15 0-8.28 6.72-15 15-15 8.29 0 15 6.72 15 15 0 8.29-6.71 15-15 15z"/><path d="m202.31 462.452c34.869 10.29 72.45 10.308 107.38 0l-53.69-169.52z"/><path d="m380.44 178.402c-3.976-3.233-15.503-13.601-35-23.98-27.32-14.57-58.25-22.26-89.44-22.26-44.855 0-86.088 14.813-124.44 46.24 33.39 31.85 77.98 49.86 124.44 49.86s91.05-18.01 124.44-49.86z"/></g></svg>