<svg id="Capa_1" enable-background="new 0 0 512 512" height="512" viewBox="0 0 512 512" width="512" xmlns="http://www.w3.org/2000/svg"><g><g id="XMLID_1_"><path d="m511.77 164.91c1.62 9.17-5.44 17.6-14.77 17.6h-9.87c12.67 32.37 30.06 94.87 5.5 152.23-2.79 6.52-9.75 10.19-16.71 8.81l-17.1-3.39c-2.37 27.18-13.21 76.57-59.18 104.14-4.19 2.51-9.33 2.83-13.8.85l-17.71-7.84c-22.54 35.14-67.61 59.17-106.91 73.75-3.38 1.26-7.12 1.25-10.44 0-39.3-14.58-84.37-38.61-106.91-73.75l-17.71 7.84c-4.47 1.98-9.61 1.66-13.8-.85-45.97-27.58-56.81-76.96-59.18-104.14l-17.1 3.39c-6.96 1.38-13.92-2.29-16.71-8.81-24.56-57.36-7.17-119.86 5.5-152.23h-9.87c-9.32 0-16.39-8.43-14.77-17.6 8.54-48.73 55.84-84.65 84.8-102.45l-.13-.09c-8.3-5.44-9.09-17.3-1.67-23.81 44.73-39.3 91.57-41.62 122.98-36.64 22.35 3.54 40.1 11.17 49.79 16.08.07-.04.14-.07.22-.11 9.73-4.91 27.39-12.46 49.57-15.97 31.41-4.98 78.25-2.66 122.98 36.64 7.4 6.49 6.65 18.36-1.67 23.81l-.13.09c28.96 17.8 76.26 53.72 84.8 102.45zm-98.84-17.01c1.63-11.99-1.52-23.89-8.84-33.51-15.44-20.28-43.85-23.53-63.49-8.61l-11.37 8.66c-23.2-11.32-49.87-11.17-73.22-3.46-12.72-4.21-43.17-11.36-73.24 3.46l-11.39-8.67c-19.6-14.9-48.03-11.66-63.46 8.61-15.18 19.94-11.32 48.31 8.6 63.49l11.62 8.84c-6.02 22.52-4.68 46.77 4.03 72.26 8.07 23.61 20.42 42.78 28.59 55.48 4.63 7.2 5.59 8.36 5.59 11.13 0 49.44 40.22 89.66 89.65 89.66s89.65-40.22 89.65-89.68c0-2.71.93-3.88 5.6-11.13 8.19-12.72 20.57-31.95 28.63-55.62 8.66-25.43 9.99-49.63 3.98-72.1l11.63-8.85c9.62-7.33 15.82-17.97 17.44-29.96z"/><path d="m380.22 132.56c2.47 3.25 3.53 7.27 2.98 11.31-.54 4.06-2.64 7.65-5.88 10.12l-5.16 3.93c-5.17-9.59-11.11-17.9-17.8-24.91l4.4-3.35c6.66-5.08 16.25-3.93 21.46 2.9z"/><path d="m352.25 186.37c17.18 44.4-12.14 89.94-26.23 111.83-4.94 7.69-10.37 14.95-10.37 27.38 0 27.72-19 51.08-44.65 57.75v-45.79c5.87-2.15 11.26-5.56 15.81-10.11 5.86-5.86 5.87-15.35.01-21.22-5.85-5.86-15.35-5.86-21.21-.01-2.57 2.57-5.98 3.98-9.61 3.98s-7.04-1.41-9.61-3.98c-5.86-5.85-15.36-5.85-21.21.01-5.86 5.87-5.85 15.36.01 21.22 4.55 4.55 9.94 7.96 15.81 10.11v45.79c-25.65-6.67-44.65-30.04-44.65-57.77 0-12.29-5.28-19.47-10.37-27.35-14.06-21.85-43.32-67.29-26.31-111.64.03-.06.05-.12.08-.18v-.01l.04-.12c6.24-16.01 15.67-31.85 30.07-41.36 21.51-14.25 48.52-9.26 60.03-4.23 3.89 1.73 8.33 1.73 12.22 0 .26-.12 25.89-10.96 50.58-.8 27.55 11.36 39.19 45.23 39.55 46.5zm-26.82 44.62c0-8.28-6.71-15-15-15-8.28 0-15 6.72-15 15s6.72 15 15 15c8.29 0 15-6.72 15-15zm-108.86 0c0-8.28-6.72-15-15-15-8.29 0-15 6.72-15 15s6.71 15 15 15c8.28 0 15-6.72 15-15z"/><path d="m153.22 129.64 4.44 3.39c-9.51 10.06-17.81 23.89-17.81 24.89l-5.16-3.92c-6.75-5.15-8.01-14.74-2.9-21.44 5.23-6.87 14.84-7.93 21.43-2.92z"/></g></g></svg>