<svg id="Capa_1" enable-background="new 0 0 512 512" height="512" viewBox="0 0 512 512" width="512" xmlns="http://www.w3.org/2000/svg"><g><path d="m164.412 401.617 14.693 32.691c6.637 14.767 21.322 24.267 37.512 24.267h78.31c16.153 0 30.81-9.455 37.469-24.171l14.837-32.786h-182.821z"/><path d="m343.546 53.425h-175.092c-54.943 0-99.482 44.54-99.482 99.482v131.528c0 15.981 8.019 30.897 21.349 39.711l33.979 22.468c6.674 4.413 12.689 9.676 17.932 15.615v-46.558c0-10.127-4.498-19.611-12.34-26.02-14.852-12.136-23.365-30.087-23.365-49.256v-64.374c0-35.07 28.531-63.601 63.602-63.601h171.742c35.07 0 63.602 28.531 63.602 63.601v64.263c0 19.262-8.581 37.267-23.542 49.399-7.903 6.41-12.437 15.922-12.437 26.098v46.476c5.25-5.928 11.27-11.181 17.946-15.582l34.184-22.536c13.362-8.809 21.404-23.743 21.404-39.747v-131.484c0-54.943-44.54-99.483-99.482-99.483z"/><g><path d="m38.999 150.701c-21.923 2.342-38.999 20.893-38.999 43.437v36.478c0 22.535 17.062 41.08 38.972 43.434v-121.142c0-.737.014-1.472.027-2.207z"/><path d="m473.001 150.701c.012.735.027 1.47.027 2.207v121.143c21.91-2.354 38.972-20.899 38.972-43.434v-36.478c0-22.545-17.076-41.096-38.999-43.438z"/></g><g><path d="m341.871 142.422h-171.742c-18.528 0-33.602 15.073-33.602 33.601v64.374c0 10.127 4.498 19.611 12.34 26.02 14.852 12.136 23.365 30.087 23.365 49.256v55.944h167.262v-55.833c0-19.262 8.58-37.267 23.541-49.399 7.904-6.41 12.438-15.922 12.438-26.098v-64.263c0-18.529-15.074-33.602-33.602-33.602zm-146.871 81.578c0 8.284-6.716 15-15 15s-15-6.716-15-15v-30c0-8.284 6.716-15 15-15s15 6.716 15 15zm46 102c0 8.284-6.716 15-15 15s-15-6.716-15-15v-10c0-8.284 6.716-15 15-15s15 6.716 15 15zm60 0c0 8.284-6.716 15-15 15s-15-6.716-15-15v-10c0-8.284 6.716-15 15-15s15 6.716 15 15zm46-102c0 8.284-6.716 15-15 15s-15-6.716-15-15v-30c0-8.284 6.716-15 15-15s15 6.716 15 15z"/></g></g></svg>