<svg id="Capa_1" enable-background="new 0 0 512 512" height="512" viewBox="0 0 512 512" width="512" xmlns="http://www.w3.org/2000/svg"><g><path d="m79.013 352.025c-8.106 31.925-14.383 80.203 2.229 127.82 6.696 19.231 24.818 32.155 45.079 32.155h12.574c-.025-23.473-1.734-77.311 19.821-133.827-29.547-1.608-57.31-11.309-79.703-26.148z"/><path d="m187.042 388.248c-11.635 30.376-18.172 67.529-18.172 106.001 0 .82 0 8.636.01 17.752h174.239c.01-9.396.01-16.852.01-17.752 0-38.472-6.537-75.635-18.171-106.011-40.907 27.761-96.027 28.311-137.916.01z"/><path d="m353.285 378.162c19.985 52.402 19.854 100.356 19.82 133.838h12.564c20.172 0 38.189-12.654 44.839-31.465 16.912-47.828 10.615-96.405 2.469-128.49-22.69 14.948-50.278 24.527-79.692 26.117z"/><path d="m302.148 231.021c2.049 22.909 21.36 40.941 44.799 40.941 24.798 0 44.979-20.181 44.979-44.979 0-20.71-14.074-38.202-33.164-43.4-16.435 11.068-37.881 23.922-56.814 33.884 0 4.688-.079 10.459.2 13.554zm44.799-19.031c8.276 0 14.993 6.717 14.993 14.993 0 8.286-6.717 14.993-14.993 14.993s-14.993-6.707-14.993-14.993c0-8.276 6.717-14.993 14.993-14.993z"/><path d="m210.051 217.468c-18.933-9.962-40.379-22.816-56.814-33.884-19.091 5.198-33.164 22.69-33.164 43.4 0 24.798 20.181 44.979 44.979 44.979 23.439 0 42.75-18.031 44.799-40.941.28-3.096.2-8.867.2-13.554zm-30.006 9.515c0 8.286-6.717 14.993-14.993 14.993s-14.993-6.707-14.993-14.993c0-8.276 6.717-14.993 14.993-14.993 8.277 0 14.993 6.717 14.993 14.993z"/><path d="m272.003 228.562c-9.915 1.843-21.572 1.929-32.005-.01-.02-.01-.04-.01-.06-.01-1.228 20.133 4.023 46.262 16.063 65.829 11.993-19.436 17.297-44.929 16.043-65.809z"/><path d="m475.967 217.018c0-37.633-15.913-72.076-42-96.305-14.279 15.345-30.432 29.664-47.288 42.73 21.15 13.264 35.234 36.793 35.234 63.54 0 41.341-33.624 74.965-74.965 74.965-20.221 0-38.602-8.046-52.096-21.11-4.198 13.154-10.745 27.147-20.89 40.161-6.322 8.096-10.365 12.944-17.972 12.944-7.637 0-11.674-4.891-17.942-12.914-10.155-13.014-16.712-27.017-20.92-40.171-13.494 13.054-31.865 21.09-52.076 21.09-41.341 0-74.965-33.624-74.965-74.965 0-26.757 14.093-50.286 35.244-63.55-16.72-12.962-32.679-27.068-47.288-42.73-26.108 24.239-42.01 58.713-42.01 96.315 0 46.758 25.168 90.378 65.699 113.817.12.06.24.13.36.2 25.188 14.473 54.684 20.151 83.551 16.133 36.937 42.835 103.793 42.817 140.714 0 29.856 4.148 59.372-2.159 83.901-16.322 40.531-23.44 65.709-67.05 65.709-113.828z"/><path d="m111.924 112.391c28.548 27.531 64.008 51.889 98.788 71.266 19.158 10.643 28.885 16.326 45.303 16.326 16.102 0 25.702-5.393 45.331-16.345 34.901-19.442 70.361-43.876 98.741-71.238 21.896-21.075 41.674-45.919 53.541-73.645 8.797-20.59-9.413-42.625-31.356-37.895-1.343.299 1.726-.746-42.271 15.02-14.787 5.308-30.273 7.995-46.021 7.995h-155.93c-15.748 0-31.234-2.687-46.021-7.995l-40.499-14.516c-20.03-7.109-42.784 14.796-33.128 37.391 10.654 24.91 28.659 49.688 53.522 73.636z"/></g></svg>