<svg id="Capa_1" enable-background="new 0 0 512 512" height="512" viewBox="0 0 512 512" width="512" xmlns="http://www.w3.org/2000/svg"><g><path d="m511.924 56.636c-.12 1.18-3.06 29.27-16.04 60.141-9.95 23.68-23.17 42.671-39.131 56.461-26.303-49.163-63.703-89.258-114.612-111.482 11.44-12.6 25.12-22 40.961-28.11 55.841-21.56 117.633 6.67 120.232 7.88 5.79 2.7 9.231 8.76 8.59 15.11"/><path d="m.076 56.636c.12 1.18 3.06 29.27 16.04 60.141 9.95 23.68 23.17 42.671 39.131 56.461 26.303-49.163 63.703-89.258 114.612-111.482-11.44-12.6-25.12-22-40.961-28.11-55.841-21.56-117.633 6.67-120.232 7.88-5.79 2.7-9.231 8.76-8.59 15.11"/><path d="m462.133 274.129c-12.405-53.365-35.082-104.575-73.151-143.962-26.171-27.113-60.565-46.163-99.401-53.291-39.757-7.291-71.723.883-68.671.3-36.481 6.968-70.786 24.928-97.881 52.981-38.059 39.324-60.784 90.635-73.161 143.962-14.09 60.631-6.93 109.652 21.27 145.702 33.55 42.891 95.671 65.301 184.643 66.621h.44c88.97-1.32 151.093-23.73 184.643-66.621 28.2-36.05 35.359-85.071 21.269-145.692m-307.674-13.56c-8.29 0-15-6.72-15-15 0-8.29 6.71-15 15-15 8.28 0 15 6.71 15 15 0 8.28-6.72 15-15 15m144.182 156.013c-27.048 12.815-58.18 12.841-85.281 0-28.98-13.71-44.141-37.581-42.681-67.221 1.873-38.16 27.915-63.53 64.871-74.371 13.38-3.93 27.52-3.93 40.911 0 36.959 10.852 62.988 36.217 64.861 74.371 1.459 29.64-13.701 53.51-42.681 67.221m58.901-156.013c-8.28 0-15-6.72-15-15 0-8.29 6.72-15 15-15 8.29 0 15 6.71 15 15 0 8.28-6.71 15-15 15m-55.251 64.561c-6.44-8.51-17.08-16.3-34.29-21.35-7.614-2.234-15.893-2.379-24 0-19 5.58-41.94 18.27-43.361 47.051-.85 17.46 7.5 30.1 25.549 38.641 18.671 8.83 40.952 8.83 59.623 0 18.049-8.54 26.399-21.18 25.549-38.641-.4-7.951-2.63-17.181-9.07-25.701m-71.831 38.971c-8.29 0-15-6.72-15-15 0-8.29 6.71-15 15-15 8.28 0 15 6.71 15 15 0 8.28-6.72 15-15 15m51.08 0c-8.28 0-15-6.72-15-15 0-8.29 6.72-15 15-15 8.29 0 15 6.71 15 15 .001 8.28-6.71 15-15 15"/></g></svg>