<svg id="Capa_1" enable-background="new 0 0 512 512" height="512" viewBox="0 0 512 512" width="512" xmlns="http://www.w3.org/2000/svg"><g><path d="m106.199 66.588c-23.94 24.45-39.41 55.78-45.98 93.14-.88 4.99-1.701 9.82-2.48 14.48-16.74-16.53-27.84-35.62-33.12-57.09-13.93-56.53 18.34-108.02 19.72-110.19 5.22-8.182 16.712-9.31 23.44-2.35 8.839 8.839 30.749 26.179 62.91 41.47-8.87 6.09-17.051 12.94-24.49 20.54"/><path d="m487.38 117.119c-5.28 21.47-16.38 40.56-33.12 57.09-.779-4.66-1.6-9.49-2.48-14.48-8.833-50.23-33.624-88.379-70.46-113.67 41.581-19.73 62.64-41.2 62.9-41.48 6.719-6.95 18.21-5.844 23.44 2.35 1.38 2.169 33.652 53.66 19.72 110.19"/><path d="m256 188.438-41.25 128.9c-.62 1.91.08 3.92 1.07 4.69 12.92 10.04 26.81 14.6 40.18 14.68 13.37-.08 27.26-4.64 40.18-14.68.99-.77 1.69-2.78 1.07-4.69z"/><path d="m437.13 297.009c-1.319-28.59-2.96-64.16-14.9-132.09-12.23-69.58-57.845-98.596-93.47-112.02-40.545-15.278-97.923-16.755-145.521 0-35.911 12.641-81.24 42.44-93.47 112.02-11.94 67.93-13.58 103.5-14.9 132.09-1.07 23.33-1.92 41.76-7.63 70.89-6.07 30.96 1.56 56.76 22.68 76.7 16.51 15.6 37.52 23.8 51.42 29.23 9.799 3.848 10.365 3.964 20.91 10.91 17.48 11.5 41.4 27.26 93.75 27.26h.87c51.75-.17 75.5-15.82 92.88-27.26 10.547-6.948 11.127-7.069 20.91-10.91 13.901-5.43 34.91-13.63 51.42-29.23 16.43-15.52 24.7-34.58 24.7-56.86.001-22.764-6.562-23.434-9.649-90.73zm-282.491-14.29c-8.29 0-15-6.71-15-15 0-8.28 6.71-15 15-15 8.28 0 15 6.72 15 15 0 8.29-6.72 15-15 15zm77.221 160.191c-8.28 0-15-6.72-15-15 0-4.96-4.03-8.99-8.99-8.99-8.28 0-15-6.72-15-15s6.72-15 15-15c21.5 0 38.99 17.49 38.99 38.99 0 8.28-6.72 15-15 15zm72.27-23.99c-4.96 0-8.99 4.03-8.99 8.99 0 8.28-6.72 15-15 15s-15-6.72-15-15c0-21.5 17.49-38.99 38.99-38.99 8.28 0 15 6.72 15 15s-6.72 15-15 15zm10.4-73.161c-17.61 13.608-36.548 21.05-58.53 21.05-35.852 0-59.53-21.823-58.53-21.05-11.18-8.64-15.72-23.73-11.3-37.56l55.54-173.551c4.441-13.859 24.137-13.866 28.58 0l55.54 173.551c4.42 13.83-.12 28.92-11.3 37.56zm42.83-63.04c-8.28 0-15-6.71-15-15 0-8.28 6.72-15 15-15 8.29 0 15 6.72 15 15 0 8.29-6.71 15-15 15z"/></g></svg>