<svg id="Capa_1" enable-background="new 0 0 512 512" height="512" viewBox="0 0 512 512" width="512" xmlns="http://www.w3.org/2000/svg"><g><g id="XMLID_1_"><path d="m512 168.94c0 19.78-6.87 38.89-19.17 54.11 23.2 37.51 14.2 86.31-20.58 113.25 2.35 7.89 3.54 16.09 3.54 24.47 0 46.78-37.56 84.96-84.17 86.09-9.44 37.69-43.55 65.14-83.68 65.14-18.78 0-37.07-6.22-51.94-17.39-14.87 11.17-33.16 17.39-51.94 17.39-40.14 0-74.25-27.46-83.68-65.14-46.61-1.13-84.17-39.31-84.17-86.09 0-8.38 1.19-16.58 3.54-24.47-34.76-26.92-43.8-75.72-20.58-113.26-12.3-15.21-19.17-34.32-19.17-54.1 0-41.76 29.99-76.97 70.07-84.59 15.97-49.16 71.6-73.05 118.17-51.57 16.21-20.51 41.02-32.78 67.76-32.78s51.55 12.27 67.76 32.78c46.62-21.5 102.22 2.46 118.17 51.57 40.08 7.62 70.07 42.83 70.07 84.59zm-69.5 31.28c19.59-13.8 19.59-42.98-.01-56.77-31.79-22.35-68.48-25.84-103.38-9.9-.12.05-.24.1-.36.16-25.1 12.52-51.89 12.17-72.81-6.31-5.28-4.94-14.59-4.96-19.88 0-21.09 18.63-48.96 18.75-72.17 6.61-30.76-15.53-70.21-14.56-104.38 9.44-19.56 13.76-19.65 42.94.01 56.78 13.74 9.65 34.26 19.82 59.71 19.82.42 0 .84-.01 1.26-.01.85 55.68 19.65 96.8 30.96 116.58 4.59 8.02 7.91 16.63 9.83 25.38 9.77 44.63 40.65 70.22 84.72 70.22s74.95-25.59 84.73-70.23c1.91-8.75 5.24-17.38 9.82-25.36 11.31-19.79 30.11-60.91 30.96-116.59 22.4 0 42.41-6.77 60.97-19.81.01-.01.01-.01.02-.01z"/><path d="m425.21 167.94c2.68 1.85 2.67 5.93-.01 7.81-10.48 7.37-26.37 15.18-45.79 14.25-2.39-13.65-6.93-26.19-11.62-34.77 5.07-1.15 10.1-1.72 15.1-1.72 14.5 0 28.65 4.81 42.32 14.43z"/><path d="m351.07 204.63c2.98 34.35-5.75 80.74-26.58 117.16-6.2 10.85-10.55 22.28-13.07 33.82-1.89 8.59-5.95 20.87-14.59 30.52-6.78 7.56-15.3 12.41-25.83 14.66v-26.16c5.87-2.14 11.26-5.55 15.81-10.09 5.86-5.84 5.87-15.32.01-21.17-5.85-5.85-15.35-5.85-21.21-.01-2.57 2.56-5.98 3.97-9.61 3.97s-7.04-1.41-9.61-3.97c-5.86-5.84-15.36-5.84-21.21.01-5.86 5.86-5.85 15.33.01 21.17 4.55 4.54 9.94 7.95 15.81 10.09v26.16c-10.53-2.25-19.05-7.1-25.83-14.66-8.64-9.65-12.7-21.93-14.58-30.51-2.64-12.04-7.14-23.43-13.08-33.84-10.11-17.67-27.06-54.89-27.06-105.64 0-16.85 3.24-36.17 12.1-50.07 28.24 10.12 58.3 8.32 83.45-8.57 25.35 17.01 55.52 18.58 83.62 8.49 5.74 10.23 10.04 21.69 11.45 38.64zm-27.52 47.43c0-8.27-6.72-14.97-15-14.97s-15 6.69-15 14.97c0 8.26 6.72 14.97 15 14.97s15-6.71 15-14.97zm-105.1 0c0-8.27-6.72-14.97-15-14.97s-15 6.69-15 14.97c0 8.26 6.72 14.97 15 14.97s15-6.71 15-14.97z"/><path d="m144.21 155.23c-4.69 8.58-9.23 21.12-11.62 34.77-19.42.93-35.31-6.88-45.79-14.25-2.68-1.88-2.69-5.96-.01-7.81 13.67-9.62 27.82-14.43 42.32-14.43 5 0 10.03.57 15.1 1.72z"/></g></g></svg>