<svg id="Capa_1" enable-background="new 0 0 512 512" height="512" viewBox="0 0 512 512" width="512" xmlns="http://www.w3.org/2000/svg"><g><g id="XMLID_1_"><path d="m456.95 236.96c16.02 8.71 25.97 25.45 25.97 43.69 0 26.99-21.9 49.64-49.8 49.64-15.41 0-23.09-5.72-44.07-17.13 2.69-10.16 4.23-20.79 4.49-31.72l30.27 16.47c9.53 5.19 21.52 1.64 26.71-7.9 5.26-9.65 1.56-21.55-7.9-26.69-7.28-3.96-9.97-13.07-6.01-20.34 3.95-7.28 13.06-9.98 20.34-6.02z"/><path d="m428.64 371.77c3.4 12.82 1.6 26.21-5.07 37.68-9.37 16.15-26.17 24.74-42.95 24.74-21.99 0-42.14-14.72-48.03-36.95-.06-.15-1.07-4.29-1.11-4.44 9.38-6.15 17.97-13.41 25.56-21.61l4.57 18.47c2.83 10.42 13.59 16.64 24.05 13.87 10.49-2.79 16.76-13.54 13.98-24.07-2.13-8.01 2.64-16.22 10.65-18.35 8.01-2.12 16.22 2.65 18.35 10.66z"/><path d="m363.57 130.3c9.69 10.31 30 35.58 30 66.21s-20.31 55.89-30 66.21v15.5c0 58.92-47.94 106.85-106.85 106.85-.17 0-.33 0-.5-.01-58.69-.26-106.35-48.09-106.35-106.84v-15.5c-9.7-10.32-30-35.58-30-66.21s20.3-55.9 30-66.21v-22.3c0-59.1 47.56-107.55 106.01-108h.84c59.1 0 106.85 47.84 106.85 106.85zm-30.01 66.21c0-8.29-6.71-15-15-15-8.28 0-15 6.71-15 15 0 8.28 6.72 15 15 15 8.29 0 15-6.72 15-15zm-123.69 0c0-8.29-6.72-15-15-15-8.29 0-15 6.71-15 15 0 8.28 6.71 15 15 15 8.28 0 15-6.72 15-15z"/><path d="m356.09 447.31c8.29 0 15 6.72 15 15 0 27.4-22.29 49.69-49.69 49.69s-49.69-22.29-49.69-49.69v-48.06c10.39-1.13 20.44-3.44 30-6.78v54.84c0 10.86 8.84 19.69 19.69 19.69 10.86 0 19.69-8.83 19.69-19.69 0-8.28 6.72-15 15-15z"/><path d="m241.71 414.25v48.06c0 27.4-22.29 49.69-49.68 49.69-27.4 0-49.69-22.29-49.69-49.69 0-8.28 6.71-15 15-15 8.28 0 15 6.72 15 15 0 10.86 8.83 19.69 19.69 19.69 10.85 0 19.68-8.83 19.68-19.69v-54.81c9.65 3.36 19.7 5.63 30 6.75z"/><path d="m181.94 392.83s-1.05 4.27-1.1 4.41c-5.89 22.23-26.05 36.95-48.03 36.95-16.96 0-33.66-8.73-42.95-24.74-6.67-11.48-8.47-24.86-5.07-37.68 2.13-8.01 10.34-12.78 18.35-10.66 8.01 2.13 12.78 10.34 10.65 18.35-2.79 10.56 3.52 21.29 13.98 24.07 10.46 2.77 21.22-3.45 24.05-13.88l4.56-18.46c6.9 7.53 15.78 15.23 25.56 21.64z"/><path d="m119.89 280.67c.19 10.87 1.65 21.53 4.29 31.82-22.39 12.18-29.87 17.8-45.3 17.8-27.82 0-49.8-22.55-49.8-49.64 0-18.24 9.95-34.98 25.97-43.69 7.28-3.95 16.39-1.26 20.34 6.02 3.96 7.27 1.27 16.38-6.01 20.34-9.43 5.13-13.17 17.01-7.9 26.69 5.19 9.54 17.18 13.08 26.71 7.9z"/></g></g></svg>